<svg width="1136" height="797" viewBox="0 0 1136 797" fill="none" xmlns="http://www.w3.org/2000/svg">
<path d="M1093.49 9.82003C1099.88 13.4734 1104.41 16.5967 1107.06 19.19C1109.65 21.7234 1109.66 24.5167 1107.09 27.57C1104.76 30.3434 1103.02 33.4034 1101.89 36.75C1101.03 39.3034 1100.92 41.49 1101.57 43.31C1102.4 45.6033 1104.11 47.2834 1106.71 48.35C1113.02 50.95 1119.22 50.9367 1125.31 48.31C1129 46.7233 1131.6 47.1667 1133.11 49.64C1133.77 50.7267 1134.3 52.86 1134.71 56.04C1136.07 66.78 1136.09 77.5367 1134.78 88.31C1131.31 116.797 1117.22 137.763 1092.52 151.21C1091.01 152.03 1089.71 152.343 1088.62 152.15C1087.17 151.89 1085.94 151.113 1084.93 149.82C1077.16 139.827 1068.81 130.343 1059.88 121.37C1049.47 110.89 1037.53 102.663 1024.06 96.69C1024.02 96.6767 1023.43 96.46 1022.28 96.04C1019.93 95.1734 1018.6 93.4067 1018.3 90.74C1017.99 88.1 1017.31 85.5934 1016.26 83.22C1015.05 80.4734 1013.51 78.4567 1011.64 77.17C1009.86 75.9367 1007.84 75.2933 1005.59 75.24C1003.74 75.1933 1001.77 75.6833 999.66 76.71C993.36 79.7967 988.98 84.8134 986.52 91.76C985.627 94.2667 984.087 95.69 981.9 96.03C980.34 96.2767 978.6 95.7267 976.68 94.38C968.793 88.8667 963.67 81.3034 961.31 71.69C961.17 71.1167 960.94 71.0767 960.62 71.57C954.127 81.4367 949.107 91.9334 945.56 103.06C942.387 113.033 940.217 124.1 939.05 136.26C937.897 148.313 937.553 160.55 938.02 172.97C938.022 173.027 938.038 173.083 938.066 173.133C938.095 173.183 938.135 173.225 938.184 173.256C938.233 173.288 938.289 173.307 938.347 173.313C938.406 173.319 938.465 173.311 938.52 173.29C952.04 167.75 965.817 166.407 979.85 169.26C990.383 171.4 1000.75 175.027 1010.96 180.14C1011.16 180.239 1011.38 180.274 1011.6 180.24C1011.82 180.206 1012.02 180.104 1012.18 179.95C1018.7 173.517 1025.97 168.37 1034 164.51C1043.75 159.823 1053.59 158.737 1063.5 161.25C1068.48 162.51 1073.33 164.6 1078.04 167.52C1081.69 169.787 1085.76 173.067 1090.24 177.36C1099.64 186.387 1107.83 196.437 1114.82 207.51C1115.76 209.003 1116.17 210.303 1116.05 211.41C1115.88 212.93 1115.12 214.22 1113.79 215.28C1109.75 218.48 1106.76 222.157 1104.81 226.31C1103.46 229.203 1103.08 232.147 1103.67 235.14C1104.18 237.693 1105.48 240.203 1107.56 242.67C1111.07 246.837 1115.64 249.6 1121.26 250.96C1123.66 251.54 1125.24 252.81 1125.99 254.77C1126.24 255.437 1126.51 257.27 1126.79 260.27C1127.46 267.51 1127.45 274.753 1126.76 282C1124.77 303.147 1115.52 320.237 1099.03 333.27C1091.88 338.91 1084.06 343.323 1075.57 346.51C1074.02 347.09 1072.73 347.23 1071.71 346.93C1070.35 346.53 1069.25 345.663 1068.4 344.33C1065.28 339.437 1061.96 334.683 1058.43 330.07C1049.68 318.63 1039.64 309.337 1028.31 302.19C1025.26 300.263 1024.4 297.66 1025.72 294.38C1028.36 287.827 1029.37 281.367 1028.75 275C1028.58 273.273 1028.07 271.46 1027.22 269.56C1026.39 267.713 1025.34 266.183 1024.06 264.97C1020.17 261.27 1015.47 260.593 1009.94 262.94C1006.69 264.313 1003.79 266.567 1001.23 269.7C996.13 275.953 992.47 282.97 990.25 290.75C988.51 293.783 985.823 294.637 982.19 293.31C973.157 290.023 965.657 286.773 959.69 283.56C944.61 275.453 931.733 266.997 921.06 258.19C919.807 257.157 919.247 255.793 919.38 254.1C919.493 252.633 920.057 251.407 921.07 250.42C922.657 248.887 924.8 248.413 927.5 249C933.127 250.227 938.76 250.18 944.4 248.86C948.4 247.927 951.363 246.507 953.29 244.6C955.883 242.047 957.037 238.68 956.75 234.5C956.49 230.673 955.103 226.98 952.59 223.42C947.637 216.407 940.82 212.347 932.14 211.24C931.902 211.209 931.661 211.24 931.438 211.329C931.216 211.419 931.02 211.563 930.87 211.75C922.483 222.123 917.593 233.953 916.2 247.24C915.6 252.987 915.56 258.737 916.08 264.49C917.187 276.65 919.977 288.41 924.45 299.77C929.657 312.977 933.987 324.657 937.44 334.81C939.973 342.27 942.3 350.553 944.42 359.66C948.187 375.86 949.06 392.127 947.04 408.46C947.027 408.558 947.036 408.658 947.064 408.753C947.093 408.848 947.142 408.936 947.207 409.011C947.272 409.085 947.353 409.145 947.443 409.186C947.533 409.228 947.631 409.249 947.73 409.25C953.83 409.25 959.587 409.253 965 409.26C975.52 409.28 983.123 413.673 987.81 422.44C990.297 427.08 991.17 431.913 990.43 436.94C989.723 441.787 987.797 446.037 984.65 449.69C981.063 453.863 976.277 456.563 970.29 457.79C970.147 457.821 970.018 457.899 969.924 458.011C969.83 458.123 969.776 458.264 969.77 458.41C968.757 480.637 968.69 502.753 969.57 524.76C970.49 547.8 973.633 569.713 979 590.5C983.187 606.72 989.653 622.343 998.4 637.37C1004.01 647.003 1007.18 652.573 1007.91 654.08C1016.32 671.4 1021.03 689.71 1022.05 709.01C1022.44 716.277 1022.39 722.94 1021.91 729C1021.01 740.413 1018.35 751.393 1013.94 761.94C1010.71 769.647 1006.16 776.65 1000.28 782.95C1000.05 783.19 1000.11 783.31 1000.44 783.31C1009.88 783.323 1019.32 783.22 1028.75 783C1042.6 782.853 1056.43 783.197 1070.25 784.03C1079.4 784.583 1088.48 785.673 1097.49 787.3C1098.73 787.52 1099.64 787.84 1100.22 788.26C1101.38 789.1 1101.44 790.057 1100.39 791.13C1099.9 791.643 1099.17 791.987 1098.21 792.16C1084.69 794.627 1071.7 795.99 1059.25 796.25C1043.8 796.57 1026.06 796.617 1006.01 796.39C998.183 796.297 991.517 796.25 986.01 796.25C710.837 796.25 435.667 796.25 160.5 796.25C121.5 796.91 85.5 796.827 52.5 796C37.5467 795.627 21.51 794.353 4.39001 792.18C3.18334 792.027 2.30001 791.747 1.74001 791.34C0.573345 790.487 0.640009 789.423 1.94001 788.15C2.16734 787.935 2.47189 787.795 2.81 787.75C19.57 785.497 38.7167 784.08 60.25 783.5C77.83 783.027 95.6833 782.863 113.81 783.01C115.083 783.017 115.203 782.647 114.17 781.9C101.103 772.447 92.1567 759.66 87.33 743.54C87.2904 743.407 87.2035 743.293 87.0857 743.219C86.9678 743.145 86.8271 743.117 86.69 743.14C64.1767 746.653 45.53 740.973 30.75 726.1C25.8433 721.167 21.9633 715.783 19.11 709.95C15.8033 703.19 13.8133 696.04 13.14 688.5C12.5533 681.933 13.0567 675.313 14.65 668.64C18.27 653.507 26.5733 641.48 39.56 632.56C52.6867 623.553 67.6467 620.237 84.44 622.61C84.5011 622.619 84.5634 622.615 84.6224 622.598C84.6815 622.581 84.7359 622.552 84.7817 622.513C84.8275 622.474 84.8637 622.425 84.8876 622.371C84.9115 622.317 84.9226 622.259 84.92 622.2C84.7067 616.98 84.6733 611.76 84.82 606.54C84.9267 602.62 85.52 599.517 86.6 597.23C88.9 592.343 92.6167 589.293 97.75 588.08C99.3767 587.693 103.89 587.5 111.29 587.5C149.783 587.5 188.333 587.5 226.94 587.5C227.089 587.5 227.231 587.441 227.336 587.336C227.441 587.231 227.5 587.089 227.5 586.94C227.5 512.313 227.5 437.917 227.5 363.75C227.5 340.357 238.02 324.543 259.06 316.31C262.98 314.777 268.23 314.027 274.81 314.06C323.517 314.307 372.227 314.35 420.94 314.19C421.005 314.19 421.07 314.177 421.13 314.151C421.19 314.125 421.244 314.088 421.29 314.04C421.336 313.993 421.372 313.936 421.396 313.874C421.42 313.813 421.431 313.747 421.43 313.68C421.177 301.133 425.97 291.177 435.81 283.81C445.337 276.683 456.21 272.98 468.43 272.7C468.496 272.698 468.56 272.682 468.62 272.654C468.679 272.626 468.732 272.586 468.775 272.538C468.818 272.489 468.851 272.432 468.87 272.37C468.89 272.309 468.897 272.244 468.89 272.18C467.403 257.46 468.343 242.897 471.71 228.49C475.117 213.93 480 199.88 486.36 186.34C489.62 179.393 493.007 172.513 496.52 165.7C496.67 165.408 496.726 165.079 496.68 164.76C492.647 138.373 491.717 111.907 493.89 85.36C494.35 79.76 495.26 75.46 496.62 72.46C501.087 62.5667 509.63 58.2467 522.25 59.5C532.83 60.5467 543.307 62.24 553.68 64.58C570.587 68.3933 586.63 74.4534 601.81 82.76C602.098 82.9167 602.42 82.9895 602.74 82.97C610.58 82.51 618.417 82.02 626.25 81.5C642.523 80.9534 658.273 81.4534 673.5 83C675.133 83.1667 676.57 82.88 677.81 82.14C678.47 81.7534 678.817 81.55 678.85 81.53C696.23 72.3834 714.947 66.04 735 62.5C743.62 60.98 751.093 59.8967 757.42 59.25C767.127 58.25 774.633 61.4367 779.94 68.81C781.8 71.3967 783.06 74.4334 783.72 77.92C783.927 78.9867 784.257 82.21 784.71 87.59C785.11 92.3034 785.383 97.24 785.53 102.4C785.557 103.287 785.937 103.48 786.67 102.98C795.923 96.64 805.657 94.4434 815.87 96.39C820.683 97.31 825.533 99.2534 830.42 102.22C834.833 104.9 838.993 108.167 842.9 112.02C843.101 112.218 843.353 112.355 843.627 112.415C843.902 112.475 844.187 112.456 844.45 112.36C852.723 109.407 861.073 108.297 869.5 109.03C877.787 109.757 885.063 112.807 891.33 118.18C898.083 123.967 901.913 131.55 902.82 140.93C902.86 141.397 903.043 141.91 903.37 142.47L908.69 151.57C909.19 152.423 909.467 152.367 909.52 151.4C910.547 133.28 914.137 115.567 920.29 98.26C930.05 70.7934 946.973 49.3933 971.06 34.06C976.78 30.4267 980.14 28.3034 981.14 27.69C993.713 19.9967 1007.69 16.79 1023.06 18.07C1024.53 18.19 1025.8 17.7534 1026.88 16.76C1047.03 -1.72664 1069.24 -4.03997 1093.49 9.82003ZM1045.5 25.04C1053.19 29.24 1059.79 34.04 1065.31 39.44C1075.97 49.86 1082.35 62.6834 1084.45 77.91C1084.48 78.1367 1084.5 78.36 1084.51 78.58C1084.6 80.9133 1084.4 81.0734 1083.93 79.06C1080.42 64.12 1072.53 52.1134 1060.25 43.04L1061.69 43.35C1062.24 43.47 1062.25 43.39 1061.72 43.11C1061.09 42.7833 1060.21 42.1434 1059.06 41.19C1055.74 38.4234 1051.32 36.0067 1045.81 33.94C1043.54 33.0867 1041.86 32.7034 1040.75 32.79L1036.75 31.54C1026.12 28.3734 1015.34 27.7767 1004.41 29.75C997.243 31.05 990.753 33.86 984.94 38.18C978.333 43.0933 974.04 49.5533 972.06 57.56C970.753 62.8534 971.22 68.25 973.46 73.75C974.667 76.8567 976.513 79.51 979 81.71C980.2 81.4233 981.283 80.52 982.25 79C985.05 74.58 989.133 70.83 994.5 67.75C995.173 67.3634 994.923 67.1833 993.75 67.21C1002.22 62.99 1009.98 63.1767 1017.03 67.77C1019.98 69.6967 1022.45 72.1934 1024.44 75.26C1026.45 78.3667 1027.79 81.7033 1028.44 85.27C1028.51 85.6815 1028.69 86.0694 1028.94 86.4016C1029.19 86.7338 1029.52 87.0006 1029.9 87.18C1046.04 94.9667 1060.05 105.18 1071.94 117.82C1078.21 124.493 1084.34 131.523 1090.33 138.91C1090.49 139.106 1090.72 139.236 1090.96 139.274C1091.21 139.313 1091.47 139.258 1091.68 139.12C1099.84 133.913 1106.54 127.623 1111.77 120.25C1115.47 115.023 1118.43 109.077 1120.66 102.41C1123.41 94.1767 1124.82 85.6234 1124.89 76.75C1124.94 71.6567 1124.7 66.3533 1124.19 60.84C1124.18 60.7503 1124.15 60.6636 1124.11 60.5853C1124.06 60.507 1124 60.4389 1123.93 60.3853C1123.85 60.3317 1123.77 60.2938 1123.68 60.2739C1123.59 60.2541 1123.5 60.2527 1123.41 60.27C1116.92 61.57 1110.51 61.1667 1104.19 59.06C1098.88 57.2933 1095 54.22 1092.55 49.84C1090.48 46.1333 1089.78 41.9333 1090.45 37.24C1091.08 32.8267 1092.75 28.7133 1095.46 24.9C1095.54 24.7883 1095.58 24.6512 1095.56 24.5148C1095.55 24.3784 1095.48 24.2522 1095.38 24.16C1093.26 22.2267 1090.88 20.66 1088.25 19.46C1071.18 8.75335 1054.67 9.35336 1038.71 21.26C1038.67 21.2928 1038.63 21.3364 1038.61 21.3866C1038.58 21.4368 1038.57 21.4918 1038.58 21.5463C1038.58 21.6007 1038.6 21.6527 1038.63 21.6972C1038.66 21.7417 1038.7 21.7771 1038.75 21.8L1045.5 25.04ZM947.21 67.5C945.47 68.44 944.097 69.7367 943.09 71.39C942.25 72.7767 941.813 73.4934 941.78 73.54C932.32 87.3934 925.727 102.713 922 119.5C921.213 123.04 920.95 126.373 921.21 129.5L919.75 140.46C917.85 155.5 917.3 171.26 918.1 187.74C918.12 188.2 918.307 188.27 918.66 187.95L928.8 178.75C928.922 178.641 929.017 178.51 929.079 178.368C929.142 178.226 929.169 178.076 929.16 177.93C928.38 163.777 928.59 149.633 929.79 135.5C930.523 128 931.747 120.583 933.46 113.25L933.4 118.2C933.393 118.48 933.457 118.503 933.59 118.27C933.997 117.59 934.157 116.83 934.07 115.99C934.037 115.637 934.083 115.323 934.21 115.05C935.143 112.983 935.71 110.827 935.91 108.58C936.043 107.147 936.377 105.83 936.91 104.63C937.703 102.823 938.31 100.947 938.73 99C939.27 96.5067 940.037 94.1 941.03 91.78C942.597 88.1134 943.38 86.2767 943.38 86.27C944.16 84.39 945.033 82.55 946 80.75C947.06 78.7767 947.797 76.6934 948.21 74.5C951.35 68.5734 955.09 63.05 959.43 57.93C960.75 56.3633 961.55 54.7834 961.83 53.19C961.97 52.39 961.737 52.26 961.13 52.8C955.917 57.4267 951.277 62.3267 947.21 67.5ZM505.5 79.71C504.547 87.3633 503.987 95.0434 503.82 102.75C503.353 123.53 504.667 144.223 507.76 164.83C508.047 166.723 507.72 168.503 506.78 170.17C499.54 182.977 493.337 196.563 488.17 210.93C483.683 223.423 480.86 236.287 479.7 249.52C479.02 257.193 479.13 264.93 480.03 272.73C480.059 272.983 480.168 273.22 480.34 273.407C480.513 273.594 480.74 273.721 480.99 273.77C490.85 275.67 499.59 280.08 507.21 287C511.43 291.407 514.54 296.49 516.54 302.25C517.373 305.977 517.837 309.75 517.93 313.57C517.933 313.701 517.988 313.826 518.083 313.917C518.178 314.009 518.306 314.06 518.44 314.06L538.75 313.96C549.417 314.193 560.083 314.207 570.75 314C570.75 314 609 314 685.5 314C703.533 314 713.117 313.987 714.25 313.96L752.94 314.18C752.995 314.18 753.05 314.167 753.099 314.141C753.148 314.116 753.19 314.078 753.222 314.032C753.255 313.987 753.276 313.934 753.284 313.877C753.292 313.821 753.287 313.764 753.27 313.71C750.157 304.597 751.22 296.027 756.46 288C759.7 283.433 763.713 279.697 768.5 276.79C777.687 271.917 787.507 269.883 797.96 270.69C798.149 270.704 798.337 270.642 798.481 270.519C798.625 270.395 798.715 270.219 798.73 270.03C800.177 252.123 798.03 234.78 792.29 218C787.483 202.247 780.657 186.477 771.81 170.69C770.51 168.363 770.143 165.79 770.71 162.97C771.197 160.57 771.44 159.37 771.44 159.37C774.407 137.59 775.343 115.717 774.25 93.75C774.157 91.8234 773.81 88.49 773.21 83.75C772.703 73.8434 767.3 69.4267 757 70.5C739.347 72.34 723.347 75.6734 709 80.5C699.827 83.5867 691.743 87.0733 684.75 90.96C683.35 91.74 681.917 92.45 680.45 93.09C679.063 93.7034 677.533 93.97 675.86 93.89C667.987 93.5234 660.117 93.06 652.25 92.5C640.743 92 629.243 92.1867 617.75 93.06C612.497 93.46 607.237 93.75 601.97 93.93C600.483 93.9833 599.077 93.6834 597.75 93.03C596.09 92.21 594.437 91.3667 592.79 90.5C581.843 84.7334 570.39 80.2667 558.43 77.1C545.563 73.7 532.503 71.4167 519.25 70.25C512.023 69.6167 507.44 72.77 505.5 79.71ZM790.29 120.75C790.43 122.037 790.83 123.23 791.49 124.33C791.638 124.581 791.902 124.781 792.23 124.89C793.777 125.39 794.85 126.343 795.45 127.75C796.063 129.21 796.383 129.97 796.41 130.03C798.603 134.237 799.113 138.29 797.94 142.19C795.887 149.017 791.387 154.14 784.44 157.56C782.94 158.3 781.973 158.973 781.54 159.58C780.813 160.6 780.527 161.823 780.68 163.25C780.713 163.563 780.683 163.89 780.59 164.23C780.29 165.337 780.49 166.363 781.19 167.31C782.323 169.75 783.633 172.093 785.12 174.34C785.72 175.253 785.86 174.89 785.54 173.25C790.347 182.45 794.68 191.867 798.54 201.5C801.52 209.627 804.093 217.887 806.26 226.28C806.295 226.412 806.381 226.525 806.499 226.594C806.617 226.664 806.757 226.684 806.89 226.65C823.597 222.47 839.34 215.773 854.12 206.56C854.173 206.527 854.216 206.481 854.247 206.427C854.278 206.373 854.296 206.313 854.298 206.25C854.3 206.188 854.286 206.126 854.259 206.071C854.231 206.015 854.191 205.966 854.14 205.93C850.847 203.53 848.017 200.843 845.65 197.87C840.623 191.537 838.823 184.33 840.25 176.25C841.23 170.717 843.653 165.97 847.52 162.01C851.287 158.163 855.42 155.73 859.92 154.71C864.953 153.557 870.007 154.403 875.08 157.25C878.273 159.037 881.083 161.533 883.51 164.74C883.545 164.787 883.591 164.825 883.643 164.851C883.696 164.877 883.754 164.889 883.813 164.889C883.871 164.888 883.929 164.873 883.98 164.845C884.032 164.818 884.077 164.778 884.11 164.73C886.45 161.297 888.26 157.887 889.54 154.5C891.967 148.46 892.357 142.293 890.71 136C887.643 128.127 882.22 123.147 874.44 121.06C865.353 118.627 856.18 119.32 846.92 123.14C844.347 124.2 842.193 125.82 840.46 128C836.047 132.253 832.477 136.67 829.75 141.25C824.077 150.777 819.73 161.277 816.71 172.75C814.923 172.35 814.173 171.183 814.46 169.25C815.047 164.077 816.073 158.993 817.54 154C818.193 153.56 818.597 153.143 818.75 152.75C819.517 150.823 820.83 147.053 822.69 141.44C823.423 139.22 825.007 135.97 827.44 131.69C827.713 130.437 828.053 129.207 828.46 128L832.75 121.54L834.22 119.66C834.303 119.552 834.342 119.416 834.331 119.276C834.32 119.137 834.259 119.003 834.16 118.9C829.513 114.167 824.147 110.673 818.06 108.42C814.827 107.227 811.72 106.637 808.74 106.65C805.36 106.663 802.197 107.28 799.25 108.5C794.65 110.4 790.35 113.363 786.35 117.39C786.309 117.431 786.278 117.481 786.26 117.536C786.241 117.591 786.235 117.65 786.241 117.709C786.248 117.768 786.267 117.826 786.298 117.877C786.329 117.929 786.371 117.975 786.42 118.01L790.29 120.75ZM785.28 131.39L784.08 145.45C784.027 146.13 784.247 146.233 784.74 145.76C789.613 141.093 789.94 136.257 785.72 131.25C785.46 130.95 785.313 130.997 785.28 131.39ZM900.79 180.75L901 214.99C901.007 215.33 901.113 215.37 901.32 215.11C903.88 211.903 905.87 208.367 907.29 204.5C909.59 201.887 910.313 198.803 909.46 195.25C909.58 190.223 909.78 185.203 910.06 180.19C908.987 173.263 906.937 166.64 903.91 160.32C903.397 159.247 902.607 158.473 901.54 158C901.347 157.787 901.237 157.537 901.21 157.25C900.79 156.137 900.243 155.927 899.57 156.62C899.365 156.825 899.243 157.137 899.23 157.49C898.87 166.19 899.043 174.443 899.75 182.25C900.317 188.543 900.59 194.273 900.57 199.44C900.563 199.753 900.567 199.75 900.58 199.43C900.767 193.203 900.837 186.977 900.79 180.75ZM878.31 177.51C877.65 176.383 877.02 175.237 876.42 174.07C875.147 171.603 873.467 169.537 871.38 167.87C869.473 166.343 867.54 165.463 865.58 165.23C863.293 164.963 861.1 165.47 859 166.75C856.773 168.103 854.953 169.857 853.54 172.01C852.187 174.07 851.317 176.38 850.93 178.94C850.09 184.56 851.923 189.433 856.43 193.56C859.603 196.46 863.19 198.71 867.19 200.31C871.837 203.483 872.003 206.777 867.69 210.19C856.503 219.03 843.553 226.1 828.84 231.4C822.327 233.747 815.77 235.767 809.17 237.46C808.979 237.505 808.812 237.621 808.703 237.785C808.593 237.948 808.55 238.146 808.58 238.34C810.287 249.82 810.63 261.103 809.61 272.19C809.596 272.33 809.632 272.471 809.712 272.588C809.793 272.705 809.912 272.791 810.05 272.83C818.123 275.17 825.367 279.053 831.78 284.48C838.04 289.773 842.363 295.947 844.75 303C847.45 310.987 846.983 319.123 843.35 327.41C843.287 327.549 843.267 327.705 843.292 327.858C843.317 328.01 843.386 328.153 843.49 328.27C851.797 337.643 855.95 348.303 855.95 360.25C855.95 455.983 855.987 551.717 856.06 647.45C856.06 647.777 856.153 647.803 856.34 647.53C867.773 630.59 876.19 612.253 881.59 592.52C884.85 580.607 887.237 568.517 888.75 556.25C891.003 537.923 892.173 519.527 892.26 501.06C892.327 487.287 892.057 473.127 891.45 458.58C891.439 458.296 891.339 458.023 891.163 457.797C890.987 457.571 890.745 457.405 890.47 457.32C884.73 455.56 880.253 452.477 877.04 448.07C874.38 444.417 872.837 440.267 872.41 435.62C871.97 430.787 872.937 426.267 875.31 422.06C880.49 412.9 888.72 408.63 900 409.25C901.48 409.33 906.207 409.31 914.18 409.19C914.323 409.19 914.461 409.142 914.57 409.052C914.68 408.963 914.754 408.838 914.78 408.7C917.06 396.187 917.297 383.62 915.49 371C912.47 349.84 906.827 329.403 898.56 309.69C891.16 292.03 888.22 273.24 889.74 253.32C890.28 246.247 890.55 242.693 890.55 242.66C891.777 219.867 892.093 197.057 891.5 174.23C891.493 173.89 891.38 173.85 891.16 174.11C890.073 175.403 888.967 176.733 887.84 178.1C885.793 180.58 883.513 181.27 881 180.17C879.98 179.723 879.083 178.837 878.31 177.51ZM1027 189.04C1027.33 189.22 1027.59 189.457 1027.79 189.75C1027.73 190.07 1027.57 190.26 1027.31 190.32C1027.27 190.33 1027.23 190.349 1027.2 190.376C1027.16 190.403 1027.14 190.437 1027.12 190.474C1027.11 190.511 1027.1 190.55 1027.1 190.588C1027.11 190.626 1027.13 190.661 1027.15 190.69C1028.48 192.157 1030.03 193.323 1031.81 194.19C1039.34 201.043 1045.63 207.25 1050.69 212.81C1051.59 213.803 1052.43 214.45 1053.21 214.75C1065.84 232.137 1072.52 251.637 1073.25 273.25C1073.41 273.743 1073.51 274.243 1073.54 274.75C1073.84 283.563 1073.4 283.647 1072.21 275C1070.39 256.373 1063.97 239.54 1052.96 224.5C1052.96 222.707 1052.2 221.31 1050.69 220.31C1040.38 207.19 1027.42 197.65 1011.81 191.69C1010.74 191.277 1009.81 191.143 1009 191.29C1001.83 187.683 994.41 184.683 986.75 182.29C980.41 180.37 973.98 179.283 967.46 179.03C960.393 178.75 954 179.547 948.28 181.42C938.587 184.607 930.41 190.54 923.75 199.22C923.157 199.993 923.373 200.357 924.4 200.31L930.5 200.04L935.5 200.71C934.847 200.797 934.76 201.07 935.24 201.53C935.393 201.67 935.593 201.763 935.84 201.81C941.76 202.95 946.877 205.117 951.19 208.31C952.41 209.217 953.597 209.6 954.75 209.46C961.117 214.953 965.2 221.55 967 229.25C969.06 238.063 967.287 245.493 961.68 251.54C959.4 253.993 956.69 255.963 953.55 257.45C950.45 258.923 947.177 259.85 943.73 260.23C943.037 260.303 942.977 260.537 943.55 260.93C950.17 265.443 956.987 269.62 964 273.46C969.52 276.42 975.197 279.04 981.03 281.32C981.171 281.375 981.324 281.38 981.459 281.336C981.594 281.291 981.702 281.2 981.76 281.08L983.25 277.96C984.677 276.713 986.03 274.83 987.31 272.31C990.297 266.437 994.633 261.097 1000.32 256.29C1000.75 255.93 1000.56 255.82 999.75 255.96L1007 251.79C1007.58 252.117 1008.14 252.083 1008.69 251.69C1018.16 249.13 1026.16 251.253 1032.69 258.06C1035.32 260.807 1037.19 264.12 1038.29 268C1037.98 270.247 1038.21 272.413 1039 274.5C1039.23 277.087 1039.23 279.67 1039 282.25C1038.19 285.203 1037.59 288.2 1037.19 291.24C1037.1 291.967 1036.77 292.563 1036.21 293.03C1036.07 293.148 1035.96 293.295 1035.88 293.46C1035.8 293.626 1035.76 293.807 1035.76 293.99C1035.75 294.174 1035.79 294.355 1035.87 294.523C1035.94 294.69 1036.05 294.839 1036.19 294.96C1039.4 297.727 1042.42 300.203 1045.24 302.39C1045.25 302.403 1045.95 303.12 1047.34 304.54C1048.33 305.553 1049.63 306.027 1051.25 305.96C1060.19 314.373 1068.07 323.733 1074.88 334.04C1075.02 334.251 1075.23 334.405 1075.47 334.473C1075.71 334.541 1075.97 334.519 1076.2 334.41C1083.53 330.997 1090.06 326.703 1095.79 321.53C1105.64 312.65 1111.87 301.69 1114.5 288.65C1116.23 280.097 1116.7 271.093 1115.91 261.64C1115.89 261.437 1115.82 261.243 1115.69 261.081C1115.57 260.92 1115.4 260.798 1115.21 260.73C1110.13 258.943 1105.68 256.263 1101.86 252.69C1097.79 248.877 1095.06 244.637 1093.65 239.97C1091.76 233.683 1092.39 227.25 1095.53 220.67C1097.4 216.75 1099.85 213.31 1102.89 210.35C1103.01 210.24 1103.08 210.091 1103.1 209.932C1103.11 209.772 1103.07 209.612 1102.98 209.48C1098.14 202.513 1092.96 196.04 1087.44 190.06C1081.35 183.48 1075.12 178.53 1068.75 175.21C1060.38 170.397 1051.86 169.557 1043.19 172.69C1035.51 175.463 1028.59 179.713 1022.42 185.44C1022.37 185.482 1022.34 185.534 1022.31 185.591C1022.29 185.648 1022.28 185.709 1022.28 185.77C1022.29 185.831 1022.3 185.889 1022.33 185.941C1022.36 185.993 1022.4 186.037 1022.45 186.07L1027 189.04ZM911.08 217.45C903.22 230.263 899.05 244.277 898.57 259.49C898.297 268.037 898.773 275.623 900 282.25C900.953 287.41 902.423 293 904.41 299.02C904.723 299.973 906.77 305.377 910.55 315.23C917.617 333.67 922.35 352.177 924.75 370.75C926.29 382.69 926.167 395.337 924.38 408.69C924.371 408.754 924.376 408.819 924.395 408.881C924.413 408.943 924.444 409 924.486 409.048C924.527 409.097 924.579 409.135 924.636 409.162C924.694 409.188 924.757 409.201 924.82 409.2L936.98 409.24C937.2 409.243 937.414 409.162 937.579 409.012C937.744 408.862 937.847 408.654 937.87 408.43C939.717 391.123 938.657 374.417 934.69 358.31C930.95 343.143 925.25 326.183 917.59 307.43C914.383 299.563 911.78 291.5 909.78 283.24C907.127 272.313 906.153 261.237 906.86 250.01C907.667 237.137 911.427 224.967 918.14 213.5C918.313 213.207 918.23 213.083 917.89 213.13C916.283 213.35 914.927 213.78 913.82 214.42C912.913 214.94 912 215.95 911.08 217.45ZM762.71 301.75C762.077 304.843 762.487 307.53 763.94 309.81C765.833 312.79 768.65 315.197 772.39 317.03C783.017 322.243 794.153 325.76 805.8 327.58C810.273 328.28 813.577 328.697 815.71 328.83C819.423 329.063 822.77 328.787 825.75 328C830.277 326.8 833.193 324.217 834.5 320.25C836.667 313.663 835.763 307.247 831.79 301C829.937 298.013 827.987 295.617 825.94 293.81C816.853 285.783 806.04 281.713 793.5 281.6C786.753 281.533 780.417 283.077 774.49 286.23C768.163 289.59 764.237 294.763 762.71 301.75ZM432.54 312.25C432.573 314.657 433.163 316.637 434.31 318.19C436.663 321.377 439.96 323.54 444.2 324.68C447.333 325.52 449.767 326.043 451.5 326.25C462.067 327.497 472.65 327.677 483.25 326.79C488.31 326.37 493.207 325.25 497.94 323.43C503.907 321.143 506.843 316.75 506.75 310.25C506.67 304.743 504.35 299.743 499.79 295.25C494.963 290.503 489.053 287.233 482.06 285.44C474.24 283.433 466.617 283.267 459.19 284.94C450.537 286.887 443.493 290.76 438.06 296.56C434.12 300.767 432.28 305.997 432.54 312.25ZM242.46 348.5C240.927 352.44 240.273 356.523 240.5 360.75C240.213 464.417 240.097 568.083 240.15 671.75C240.157 674.663 240.273 678.747 240.5 684C240.713 688.84 241.837 693.227 243.87 697.16C249.55 708.107 258.593 714.22 271 715.5C271 715.5 447.683 715.5 801.05 715.5C809.563 715.5 814.85 715.303 816.91 714.91C822.363 713.877 827.247 711.51 831.56 707.81C839.367 701.13 843.27 692.443 843.27 681.75C843.257 574.583 843.227 467.417 843.18 360.25C843.173 351.577 840.22 343.877 834.32 337.15C834.2 337.013 834.04 336.917 833.862 336.875C833.684 336.834 833.498 336.85 833.33 336.92C828.77 338.82 824.243 339.807 819.75 339.88C814.103 339.973 808.513 339.467 802.98 338.36C796.86 337.14 790.797 335.687 784.79 334C778.85 332.227 773.333 330.07 768.24 327.53C767.207 327.01 766.11 326.75 764.95 326.75H513.39C512.942 326.75 512.506 326.902 512.15 327.18C507.743 330.627 503.763 333.067 500.21 334.5C492.91 336.713 484.09 337.963 473.75 338.25C466.197 338.463 459.113 338.213 452.5 337.5C447.567 336.967 442.567 335.73 437.5 333.79C433.847 332.31 430.53 330.19 427.55 327.43C427.073 326.992 426.449 326.75 425.8 326.75C381.6 326.75 337.833 326.71 294.5 326.63C288.58 326.617 282.663 326.74 276.75 327C260.15 326.367 248.72 333.533 242.46 348.5ZM885.54 441C888.293 445.113 892.197 447.177 897.25 447.19C916.67 447.25 936.087 447.257 955.5 447.21C962.913 447.49 967.393 447.4 968.94 446.94C974.453 445.293 977.823 442.15 979.05 437.51C980.19 433.223 979.433 429.253 976.78 425.6C973.56 421.167 968.55 419.48 961.75 420.54C960.523 420.22 959.273 420.123 958 420.25C938.167 420.25 918.333 420.173 898.5 420.02C890.92 419.96 886.023 423.307 883.81 430.06C882.61 433.74 883.187 437.387 885.54 441ZM943.25 458.29H910.25L902.81 458.3C902.746 458.3 902.682 458.313 902.623 458.339C902.564 458.365 902.511 458.403 902.467 458.451C902.423 458.499 902.389 458.555 902.367 458.617C902.345 458.679 902.336 458.744 902.34 458.81C903.56 484.65 903.35 510.47 901.71 536.27C901.237 543.623 900.623 550.26 899.87 556.18C898.343 568.093 896.283 579.347 893.69 589.94C888.683 610.38 880.433 629.88 868.94 648.44C863.68 656.927 859.65 665.457 856.85 674.03C856.323 675.63 856.087 677.49 856.14 679.61C856.333 687.997 854.677 695.977 851.17 703.55C850.417 705.177 849.993 706.767 849.9 708.32C849.773 710.52 849.667 712.723 849.58 714.93C849.577 715.005 849.587 715.079 849.61 715.149C849.633 715.219 849.668 715.282 849.712 715.336C849.757 715.39 849.811 715.434 849.871 715.464C849.93 715.493 849.995 715.509 850.06 715.51L857.25 715.71C892.203 715.803 910.12 715.817 911 715.75C922.207 714.897 930.103 718.903 934.69 727.77C936.197 730.683 936.98 733.62 937.04 736.58C937.1 739.427 936.69 742.503 935.81 745.81C933.597 754.157 930.813 761.137 927.46 766.75C923.447 772.83 918.91 777.83 913.85 781.75C912.283 782.97 912.493 783.557 914.48 783.51C928.827 783.15 943.083 783.113 957.25 783.4C969.55 783.64 976.3 783.59 977.5 783.25C986.067 780.81 992.83 775.91 997.79 768.55C1002.34 761.777 1005.7 754.45 1007.85 746.57C1010.56 736.657 1011.85 726.55 1011.72 716.25C1011.41 691.537 1004.78 668.743 991.85 647.87C984.237 635.583 978.223 623.19 973.81 610.69C967.397 592.517 963.097 573.29 960.91 553.01C959.923 543.863 959.22 534.693 958.8 525.5C957.8 503.42 957.783 481.323 958.75 459.21C958.755 459.086 958.736 458.963 958.693 458.847C958.65 458.731 958.585 458.626 958.5 458.537C958.416 458.448 958.315 458.377 958.203 458.33C958.091 458.282 957.971 458.258 957.85 458.26L943.25 458.29ZM138.5 779.96C144.207 781.64 150.04 782.483 156 782.49C160.667 782.497 165.337 782.5 170.01 782.5C170.59 782.5 170.66 782.297 170.22 781.89L163.79 776C157.11 768.867 152.337 760.713 149.47 751.54C147.897 746.507 146.96 742.807 146.66 740.44C146.133 736.34 146.707 732.463 148.38 728.81C150.373 724.457 153.377 721.123 157.39 718.81C161.337 716.537 165.957 715.517 171.25 715.75C178.263 716.063 192.597 715.967 214.25 715.46C220.91 715.8 227.577 715.897 234.25 715.75C237.257 716.25 238.53 715.397 238.07 713.19C237.91 712.417 237.377 711.37 236.47 710.05C230.51 701.377 227.527 691.693 227.52 681C227.507 654.753 227.5 628.097 227.5 601.03C227.5 600.928 227.48 600.827 227.441 600.733C227.402 600.639 227.345 600.554 227.274 600.482C227.202 600.41 227.117 600.354 227.024 600.316C226.931 600.278 226.831 600.259 226.73 600.26L214.25 600.29H107.75L100.49 600.5C98.77 600.553 97.8533 601.533 97.74 603.44C97.4 609.313 97.4033 615.25 97.75 621.25C97.75 621.25 97.75 654.117 97.75 719.85C97.75 719.917 97.7267 721.347 97.68 724.14C97.6 729.387 98.1233 734.09 99.25 738.25C104.85 758.937 117.933 772.84 138.5 779.96ZM25.96 678.5C24.6133 693.36 29.03 706.11 39.21 716.75C51.37 728.69 66.16 733.317 83.58 730.63C83.9036 730.58 84.1986 730.417 84.4114 730.171C84.6242 729.925 84.7408 729.613 84.74 729.29L84.71 719L84.75 713.7C84.7499 713.641 84.7356 713.583 84.7084 713.53C84.6812 713.478 84.6418 713.432 84.5932 713.397C84.5447 713.362 84.4884 713.339 84.4289 713.329C84.3693 713.319 84.3081 713.323 84.25 713.34C76.7167 715.673 69.3833 715.463 62.25 712.71C51.8767 707.917 45.54 700.497 43.24 690.45C41.7667 684.023 42.1533 677.793 44.4 671.76C46.8 665.327 50.9433 660.223 56.83 656.45C60.93 653.83 65.2367 652.21 69.75 651.59C74.4167 650.95 79.1367 651.353 83.91 652.8C84.0071 652.83 84.1097 652.836 84.2097 652.819C84.3097 652.802 84.4044 652.762 84.486 652.701C84.5677 652.641 84.6341 652.563 84.6799 652.472C84.7258 652.382 84.7498 652.281 84.75 652.18L84.71 639.25L84.66 636.43C84.6566 636.293 84.5963 636.16 84.4891 636.051C84.3819 635.942 84.2341 635.864 84.07 635.83C78.95 634.697 73.9267 634.42 69 635C54.96 636.66 43.6767 643.13 35.15 654.41C29.7633 661.537 26.7 669.567 25.96 678.5ZM68.67 701.34C73.5367 702.86 78.5833 702.223 83.81 699.43C84.094 699.279 84.3316 699.053 84.4972 698.777C84.6628 698.5 84.7502 698.183 84.75 697.86V667.81C84.7503 667.655 84.7099 667.503 84.6327 667.368C84.5556 667.233 84.4444 667.12 84.31 667.04C80.35 664.633 76.0867 663.753 71.52 664.4C67.1733 665.013 63.5833 666.717 60.75 669.51C58.1233 672.097 56.3633 675.417 55.47 679.47C54.3367 684.623 55.2133 689.277 58.1 693.43C60.8133 697.343 64.3367 699.98 68.67 701.34ZM160.96 732.5C159.44 734.493 158.87 736.577 159.25 738.75C159.583 740.67 160.363 743.523 161.59 747.31C162.63 750.51 163.74 753.237 164.92 755.49C173.4 771.703 187.177 780.707 206.25 782.5C428.163 782.5 650.08 782.5 872 782.5C893.773 782.5 909.387 773.5 918.84 755.5C920.067 753.153 921.143 750.547 922.07 747.68C922.997 744.8 923.723 742.073 924.25 739.5C924.757 737.033 924.27 734.7 922.79 732.5C920.937 729.833 918.257 728.5 914.75 728.5C836.75 728.5 758.583 728.5 680.25 728.5C680.104 728.499 679.961 728.549 679.848 728.64C679.735 728.731 679.658 728.859 679.63 729L678.46 734.75C676.653 746.257 670.5 754.353 660 759.04C654.213 760.753 648.297 761.407 642.25 761C642.25 761 577.417 761.05 447.75 761.15C440.903 761.15 435.403 761.017 431.25 760.75C429.05 760.61 426.55 760.04 423.75 759.04C413.603 754.64 407.507 746.96 405.46 736L403.87 729C403.836 728.857 403.753 728.73 403.635 728.64C403.517 728.549 403.371 728.5 403.22 728.5C324.907 728.5 246.667 728.493 168.5 728.48C165.233 728.48 162.72 729.82 160.96 732.5ZM423.1 746.17C425.713 748.25 428.513 749.443 431.5 749.75C434.293 750.037 438.21 750.12 443.25 750C443.25 750 508.343 750 638.53 750C647.517 750 653.127 749.63 655.36 748.89C661.527 746.85 665.427 742.023 667.06 734.41C667.44 732.65 667.903 730.897 668.45 729.15C668.474 729.075 668.479 728.995 668.466 728.917C668.453 728.84 668.422 728.766 668.375 728.703C668.328 728.64 668.267 728.588 668.197 728.553C668.127 728.518 668.049 728.5 667.97 728.5L415.8 728.56C415.739 728.559 415.679 728.572 415.624 728.597C415.569 728.622 415.519 728.659 415.48 728.706C415.44 728.752 415.41 728.807 415.393 728.867C415.376 728.926 415.371 728.989 415.38 729.05C415.84 732.09 416.54 735.077 417.48 738.01C418.533 741.303 420.407 744.023 423.1 746.17Z" fill="#000071"/>
<path d="M1088.25 19.46L1086.54 19.5C1084.45 18.0866 1082.02 17.17 1079.25 16.75C1066.69 14.8433 1055.44 17.6066 1045.5 25.04L1038.75 21.7999C1038.7 21.777 1038.66 21.7416 1038.63 21.6971C1038.6 21.6526 1038.58 21.6006 1038.58 21.5462C1038.57 21.4917 1038.58 21.4367 1038.61 21.3866C1038.63 21.3364 1038.67 21.2928 1038.71 21.26C1054.67 9.3533 1071.18 8.75328 1088.25 19.46Z" fill="#B6EDB1"/>
<path d="M1079.25 16.75C1082.02 17.17 1084.45 18.0866 1086.54 19.5C1087.68 19.5733 1088.29 19.7433 1088.37 20.01C1088.74 21.2167 1089.49 22.1 1090.62 22.66C1093.03 23.8466 1093.79 25.1533 1092.91 26.58C1092 28.08 1091.51 28.9133 1091.45 29.08C1090.32 32.3933 1089.43 35.76 1088.76 39.18C1088.12 42.4333 1088.07 45.4866 1088.61 48.34C1089.23 51.5866 1090.21 54.5366 1091.56 57.19C1094.97 63.89 1096.8 67.4733 1097.06 67.94C1099.05 71.4866 1100.46 75.4866 1101.31 79.94C1102.31 85.18 1101.52 89.6266 1098.95 93.28C1096.62 96.5866 1093.14 98.7966 1088.52 99.91C1082.57 101.35 1076.7 100.33 1070.91 96.85C1066.56 94.23 1062.62 91.0833 1059.09 87.41C1055.74 83.9233 1052.36 80.47 1048.94 77.05C1045.15 73.2566 1040.9 70.0933 1036.19 67.56C1030.91 64.7266 1024.68 63.7066 1017.5 64.5C1015.13 64.76 1013.15 64.5533 1011.54 63.88C1009.99 63.2266 1008.89 62.8733 1008.24 62.82C1005.43 62.6133 1002.87 62.7766 1000.56 63.31C993.567 64.9366 987.673 68.56 982.88 74.18C982.853 74.2133 982.357 74.9833 981.39 76.49C980.443 77.9766 979.073 78.4333 977.28 77.86C976.964 77.7569 976.698 77.5514 976.53 77.28L974 73.21C974.08 65.2633 976.393 58.2566 980.94 52.19C986.107 45.29 992.897 40.2466 1001.31 37.06C1011.25 33.3 1022.39 32.0566 1034.74 33.33C1036.17 33.4766 1036.84 32.88 1036.75 31.54L1040.75 32.79C1047.76 35.2633 1054.26 38.68 1060.25 43.04C1072.53 52.1133 1080.42 64.12 1083.93 79.06C1084.4 81.0733 1084.6 80.9133 1084.51 78.58C1084.5 78.36 1084.48 78.1366 1084.45 77.91C1082.35 62.6833 1075.97 49.86 1065.31 39.44C1059.79 34.04 1053.19 29.24 1045.5 25.04C1055.44 17.6067 1066.69 14.8433 1079.25 16.75Z" fill="#4CD138"/>
<path d="M1086.54 19.5L1088.25 19.46C1090.88 20.66 1093.26 22.2266 1095.38 24.16C1095.48 24.2521 1095.55 24.3784 1095.56 24.5148C1095.58 24.6512 1095.54 24.7882 1095.46 24.9C1092.75 28.7133 1091.08 32.8266 1090.45 37.24C1089.78 41.9333 1090.48 46.1333 1092.55 49.84C1095 54.22 1098.88 57.2933 1104.19 59.06C1110.51 61.1666 1116.92 61.57 1123.41 60.27C1123.5 60.2527 1123.59 60.254 1123.68 60.2739C1123.77 60.2937 1123.85 60.3316 1123.93 60.3853C1124 60.4389 1124.06 60.507 1124.11 60.5852C1124.15 60.6635 1124.18 60.7503 1124.19 60.84C1124.7 66.3533 1124.94 71.6566 1124.89 76.75C1124.82 85.6233 1123.41 94.1766 1120.66 102.41C1118.43 109.077 1115.47 115.023 1111.77 120.25C1106.54 127.623 1099.84 133.913 1091.68 139.12C1091.47 139.258 1091.21 139.313 1090.96 139.274C1090.72 139.236 1090.49 139.106 1090.33 138.91C1084.34 131.523 1078.21 124.493 1071.94 117.82C1060.05 105.18 1046.04 94.9666 1029.9 87.18C1029.52 87.0006 1029.19 86.7337 1028.94 86.4016C1028.69 86.0694 1028.51 85.6815 1028.44 85.27C1027.79 81.7033 1026.45 78.3666 1024.44 75.26C1022.45 72.1933 1019.98 69.6966 1017.03 67.77C1009.98 63.1766 1002.22 62.99 993.75 67.21C987.457 70.63 982.54 75.4633 979 81.71C976.513 79.51 974.667 76.8566 973.46 73.75C973.573 73.5033 973.753 73.3233 974 73.21L976.53 77.28C976.698 77.5514 976.964 77.7569 977.28 77.86C979.073 78.4333 980.443 77.9766 981.39 76.49C982.357 74.9833 982.853 74.2133 982.88 74.18C987.673 68.56 993.567 64.9366 1000.56 63.31C1002.87 62.7766 1005.43 62.6133 1008.24 62.82C1008.89 62.8733 1009.99 63.2266 1011.54 63.88C1013.15 64.5533 1015.13 64.76 1017.5 64.5C1024.68 63.7066 1030.91 64.7266 1036.19 67.56C1040.9 70.0933 1045.15 73.2566 1048.94 77.05C1052.36 80.47 1055.74 83.9233 1059.09 87.41C1062.62 91.0833 1066.56 94.23 1070.91 96.85C1076.7 100.33 1082.57 101.35 1088.52 99.91C1093.14 98.7966 1096.62 96.5866 1098.95 93.28C1101.52 89.6266 1102.31 85.18 1101.31 79.94C1100.46 75.4866 1099.05 71.4866 1097.06 67.94C1096.8 67.4733 1094.97 63.89 1091.56 57.19C1090.21 54.5366 1089.23 51.5866 1088.61 48.34C1088.07 45.4866 1088.12 42.4333 1088.76 39.18C1089.43 35.76 1090.32 32.3933 1091.45 29.08C1091.51 28.9133 1092 28.08 1092.91 26.58C1093.79 25.1533 1093.03 23.8466 1090.62 22.66C1089.49 22.1 1088.74 21.2166 1088.37 20.01C1088.29 19.7433 1087.68 19.5733 1086.54 19.5Z" fill="#369249"/>
<path d="M1036.75 31.54C1036.84 32.88 1036.17 33.4767 1034.74 33.33C1022.39 32.0567 1011.25 33.3 1001.31 37.06C992.897 40.2467 986.107 45.29 980.94 52.19C976.393 58.2567 974.08 65.2634 974 73.21C973.753 73.3234 973.573 73.5034 973.46 73.75C971.22 68.25 970.753 62.8534 972.06 57.56C974.04 49.5534 978.333 43.0934 984.94 38.18C990.753 33.86 997.243 31.05 1004.41 29.75C1015.34 27.7767 1026.12 28.3734 1036.75 31.54Z" fill="#B6EDB1"/>
<path d="M1040.75 32.79C1041.86 32.7033 1043.54 33.0867 1045.81 33.94C1051.32 36.0067 1055.74 38.4233 1059.06 41.19C1060.21 42.1433 1061.09 42.7833 1061.72 43.11C1062.25 43.39 1062.24 43.47 1061.69 43.35L1060.25 43.04C1054.26 38.68 1047.76 35.2633 1040.75 32.79Z" fill="#001446"/>
<path d="M961.83 53.19C961.55 54.7833 960.75 56.3633 959.43 57.93C955.09 63.05 951.35 68.5733 948.21 74.5C945.09 79.5067 942.45 84.7567 940.29 90.25C940.343 89.5033 940.193 89.3633 939.84 89.83C938.48 91.6366 937.557 93.6167 937.07 95.77C936.803 96.95 936.353 98.1833 935.72 99.47C934.993 100.943 934.587 102.537 934.5 104.25C932.147 111.33 930.563 118.58 929.75 126C929.297 130.12 929.31 133.287 929.79 135.5C928.59 149.633 928.38 163.777 929.16 177.93C929.169 178.076 929.142 178.226 929.079 178.368C929.017 178.51 928.921 178.641 928.8 178.75L918.66 187.95C918.307 188.27 918.12 188.2 918.1 187.74C917.3 171.26 917.85 155.5 919.75 140.46C921.583 137.213 922.35 133.727 922.05 130C922.024 129.692 922.124 129.38 922.33 129.13C923.05 128.283 923.523 127.323 923.75 126.25C923.797 124.023 923.97 121.81 924.27 119.61C924.282 119.516 924.315 119.427 924.365 119.349C924.415 119.271 924.482 119.207 924.56 119.16L924.82 119C924.949 118.923 925.058 118.813 925.136 118.681C925.214 118.548 925.26 118.397 925.27 118.24C925.437 115.54 926.117 112.98 927.31 110.56C928.183 106.267 929.523 102.13 931.33 98.15C931.617 97.5167 931.76 96.88 931.76 96.24C931.76 95.5733 931.743 94.91 931.71 94.25C935.657 84.63 940.823 75.7133 947.21 67.5C951.277 62.3267 955.917 57.4267 961.13 52.8C961.737 52.26 961.97 52.39 961.83 53.19Z" fill="#39C026"/>
<path d="M993.75 67.21C994.923 67.1833 995.173 67.3633 994.5 67.75C989.133 70.83 985.05 74.58 982.25 79C981.283 80.52 980.2 81.4233 979 81.71C982.54 75.4633 987.457 70.63 993.75 67.21Z" fill="#001446"/>
<path d="M947.21 67.5C940.823 75.7133 935.657 84.63 931.71 94.25C926.777 105.563 923.277 117.313 921.21 129.5C920.95 126.373 921.213 123.04 922 119.5C925.727 102.713 932.32 87.3933 941.78 73.54C941.813 73.4933 942.25 72.7767 943.09 71.39C944.097 69.7367 945.47 68.44 947.21 67.5Z" fill="#001446"/>
<path d="M519.25 70.25C532.503 71.4166 545.563 73.7 558.43 77.1C570.39 80.2667 581.843 84.7333 592.79 90.5L592.76 90.72C592.748 90.7811 592.711 90.8359 592.656 90.8744C592.601 90.9129 592.532 90.9326 592.46 90.93C586.867 90.8766 581.213 89.8166 575.5 87.75C557.62 81.2766 538.87 77.2633 519.25 75.71C514.977 75.37 511.053 76.3133 507.48 78.54C507.327 78.64 507.1 78.87 506.8 79.23C506.48 79.6167 506.047 79.7766 505.5 79.71C507.44 72.77 512.023 69.6166 519.25 70.25Z" fill="#D4D3D8"/>
<path d="M773.21 83.75C772.323 82.0834 771.817 81.1867 771.69 81.06C769.443 78.86 766.89 77.3 764.03 76.38C761.923 75.7 759.037 75.5234 755.37 75.85C739.383 77.2767 723.73 80.38 708.41 85.16C708.403 85.16 706.03 86.0067 701.29 87.7C695.963 89.6067 690.45 90.6934 684.75 90.96C691.743 87.0734 699.827 83.5867 709 80.5C723.347 75.6734 739.347 72.34 757 70.5C767.3 69.4267 772.703 73.8434 773.21 83.75Z" fill="#D4D3D8"/>
<path d="M948.21 74.5C947.797 76.6933 947.06 78.7767 946 80.75C945.033 82.55 944.16 84.39 943.38 86.27C943.38 86.2767 942.597 88.1133 941.03 91.78C940.037 94.1 939.27 96.5067 938.73 99C938.31 100.947 937.703 102.823 936.91 104.63C936.377 105.83 936.043 107.147 935.91 108.58C935.71 110.827 935.143 112.983 934.21 115.05C934.083 115.323 934.037 115.637 934.07 115.99C934.157 116.83 933.997 117.59 933.59 118.27C933.457 118.503 933.393 118.48 933.4 118.2L933.46 113.25C935.1 105.397 937.377 97.73 940.29 90.25C942.45 84.7567 945.09 79.5067 948.21 74.5Z" fill="#001446"/>
<path d="M764.03 76.38C766.89 77.3 769.443 78.86 771.69 81.06C771.817 81.1867 772.323 82.0834 773.21 83.75C773.81 88.49 774.157 91.8234 774.25 93.75C775.343 115.717 774.407 137.59 771.44 159.37C771.44 159.37 771.197 160.57 770.71 162.97C770.143 165.79 770.51 168.363 771.81 170.69C780.657 186.477 787.483 202.247 792.29 218C790.81 238.84 783.527 257.3 770.44 273.38C770.353 273.487 770.137 273.607 769.79 273.74C769.657 273.787 769.547 273.873 769.46 274C757.2 258.92 741.297 252.087 721.75 253.5C714.823 254 708.11 253.88 701.61 253.14C693.203 252.18 686.913 250.22 682.74 247.26C677.24 243.367 674.21 237.75 673.65 230.41C673.603 229.783 673.857 225.517 674.41 217.61C675.03 208.597 674.31 200.143 672.25 192.25C669.63 182.217 663.853 175.093 654.92 170.88C650.58 168.833 646.173 167.783 641.7 167.73C636.9 167.67 632.353 168.697 628.06 170.81C620.98 174.303 615.87 179.91 612.73 187.63C610.203 193.837 608.877 200.293 608.75 207C608.683 210.513 608.933 216.347 609.5 224.5C610.573 239.973 603.543 249.153 588.41 252.04C579.763 253.687 571.047 254.15 562.26 253.43C549.133 252.357 537.067 255.317 526.06 262.31C517.247 267.917 510.963 276.147 507.21 287C499.59 280.08 490.85 275.67 480.99 273.77C480.74 273.721 480.513 273.594 480.34 273.407C480.168 273.22 480.059 272.983 480.03 272.73C479.13 264.93 479.02 257.193 479.7 249.52C480.86 236.287 483.683 223.423 488.17 210.93C493.337 196.563 499.54 182.977 506.78 170.17C507.72 168.503 508.047 166.723 507.76 164.83C504.667 144.223 503.353 123.53 503.82 102.75C503.987 95.0434 504.547 87.3633 505.5 79.71C506.047 79.7767 506.48 79.6167 506.8 79.23C507.1 78.87 507.327 78.64 507.48 78.54C511.053 76.3134 514.977 75.37 519.25 75.71C538.87 77.2633 557.62 81.2767 575.5 87.75C581.213 89.8167 586.867 90.8767 592.46 90.93C592.532 90.9327 592.601 90.913 592.656 90.8744C592.711 90.8359 592.748 90.7811 592.76 90.72L592.79 90.5C594.437 91.3667 596.09 92.21 597.75 93.03C599.077 93.6834 600.483 93.9833 601.97 93.93C607.237 93.75 612.497 93.46 617.75 93.06C629.243 92.1867 640.743 92 652.25 92.5C660.117 93.06 667.987 93.5234 675.86 93.89C677.533 93.97 679.063 93.7034 680.45 93.09C681.917 92.45 683.35 91.74 684.75 90.96C690.45 90.6933 695.963 89.6067 701.29 87.7C706.03 86.0067 708.403 85.16 708.41 85.16C723.73 80.38 739.383 77.2767 755.37 75.85C759.037 75.5234 761.923 75.7 764.03 76.38ZM522.73 142.43C524.83 143.303 526.607 142.763 528.06 140.81C529.793 138.483 534.41 133.683 541.91 126.41C547.903 120.597 554.467 115.537 561.6 111.23C562.78 110.517 563.57 109.863 563.97 109.27C564.677 108.21 564.793 107.12 564.32 106C563.92 105.04 562.933 104.167 561.36 103.38C552.173 98.8 542.633 95.1467 532.74 92.42C528.72 91.3134 525.683 90.8234 523.63 90.95C519.443 91.2167 516.737 93.2034 515.51 96.91C514.777 99.13 514.697 103.037 515.27 108.63C516.343 118.983 518.183 129.497 520.79 140.17C521.05 141.25 521.697 142.003 522.73 142.43ZM718.94 110.56C724.767 114.107 730.267 118.107 735.44 122.56C740.573 126.987 746.27 132.713 752.53 139.74C753.703 141.06 754.657 141.92 755.39 142.32C756.997 143.207 758.39 143.07 759.57 141.91C760.37 141.13 761.007 139.69 761.48 137.59C763.793 127.417 765.437 117.137 766.41 106.75C766.803 102.523 766.913 99.8533 766.74 98.74C766.26 95.6667 764.577 93.3567 761.69 91.81C758.83 90.2834 755.58 90.2434 751.94 91.69C741.267 94.3567 730.983 98.0667 721.09 102.82C719.27 103.693 718.073 104.56 717.5 105.42C716.36 107.127 716.84 108.84 718.94 110.56ZM550.45 158.57C550.767 158.749 551.13 158.834 551.494 158.814C551.859 158.795 552.211 158.672 552.51 158.46C554.617 156.947 556.793 155.307 559.04 153.54C565.473 148.473 572.707 145.107 580.74 143.44C582.24 143.127 583.73 142.757 585.21 142.33C585.538 142.233 585.806 142.033 585.96 141.77C586.893 140.15 586.473 138.823 584.7 137.79C581.433 135.89 578.013 134.94 574.44 134.94C571.273 134.94 567.96 135.79 564.5 137.49C557 141.183 551.967 147.3 549.4 155.84C549.04 157.06 549.39 157.97 550.45 158.57ZM698.44 142.31C710.073 144.523 720.313 149.473 729.16 157.16C730.1 157.98 730.973 158.483 731.78 158.67C734.007 159.177 734.727 158.057 733.94 155.31C731.253 145.997 725.17 139.58 715.69 136.06C710.083 133.98 704.59 134.497 699.21 137.61C698.203 138.19 697.537 138.77 697.21 139.35C696.577 140.463 696.987 141.45 698.44 142.31ZM569.239 236.435C575.773 237.528 582.617 235.126 588.266 229.756C593.914 224.387 597.904 216.49 599.357 207.803C600.811 199.116 599.61 190.35 596.017 183.434C592.425 176.519 586.735 172.019 580.201 170.925C573.667 169.832 566.823 172.234 561.175 177.604C555.526 182.973 551.536 190.87 550.083 199.557C549.363 203.859 549.287 208.224 549.86 212.406C550.434 216.587 551.644 220.501 553.423 223.926C555.202 227.35 557.514 230.217 560.228 232.364C562.941 234.51 566.003 235.893 569.239 236.435ZM717.704 236.434C720.94 235.898 724.005 234.52 726.722 232.379C729.44 230.237 731.757 227.374 733.542 223.953C735.327 220.532 736.544 216.619 737.124 212.439C737.705 208.259 737.637 203.893 736.925 199.59C735.486 190.901 731.51 182.997 725.871 177.617C720.232 172.238 713.392 169.824 706.856 170.906C703.62 171.442 700.555 172.82 697.838 174.961C695.12 177.103 692.803 179.966 691.018 183.387C689.233 186.808 688.016 190.721 687.436 194.901C686.855 199.081 686.923 203.447 687.635 207.75C689.074 216.439 693.05 224.343 698.689 229.723C704.328 235.102 711.168 237.516 717.704 236.434Z" fill="#939393"/>
<path d="M940.29 90.25C937.377 97.73 935.1 105.397 933.46 113.25C931.747 120.583 930.523 128 929.79 135.5C929.31 133.287 929.297 130.12 929.75 126C930.563 118.58 932.147 111.33 934.5 104.25C934.587 102.537 934.993 100.943 935.72 99.47C936.353 98.1834 936.803 96.95 937.07 95.77C937.557 93.6167 938.48 91.6367 939.84 89.83C940.193 89.3634 940.343 89.5034 940.29 90.25Z" fill="#42B542"/>
<path d="M532.74 92.4201C542.633 95.1467 552.173 98.8 561.36 103.38C562.933 104.167 563.92 105.04 564.32 106C564.793 107.12 564.677 108.21 563.97 109.27C563.57 109.863 562.78 110.517 561.6 111.23C554.467 115.537 547.903 120.597 541.91 126.41C534.41 133.683 529.793 138.483 528.06 140.81C526.607 142.763 524.83 143.303 522.73 142.43C521.697 142.003 521.05 141.25 520.79 140.17C518.183 129.497 516.343 118.983 515.27 108.63C514.697 103.037 514.777 99.13 515.51 96.91C516.737 93.2034 519.443 91.2167 523.63 90.9501C525.683 90.8234 528.72 91.3134 532.74 92.4201ZM523.21 109.25C523.917 116.323 524.993 123.343 526.44 130.31C526.513 130.67 526.677 130.717 526.93 130.45C532.33 124.643 538.033 119.16 544.04 114L551.85 108.06C551.892 108.027 551.925 107.984 551.947 107.935C551.968 107.887 551.976 107.833 551.971 107.781C551.966 107.729 551.948 107.679 551.918 107.637C551.888 107.595 551.847 107.561 551.8 107.54C543.933 103.913 535.77 101.13 527.31 99.19C524.763 97.7634 523.16 98.2834 522.5 100.75C522.207 101.837 522.443 104.67 523.21 109.25Z" fill="#010070"/>
<path d="M761.69 91.81C764.577 93.3566 766.26 95.6666 766.74 98.74C766.913 99.8533 766.803 102.523 766.41 106.75C765.437 117.137 763.793 127.417 761.48 137.59C761.007 139.69 760.37 141.13 759.57 141.91C758.39 143.07 756.997 143.207 755.39 142.32C754.657 141.92 753.703 141.06 752.53 139.74C746.27 132.713 740.573 126.987 735.44 122.56C730.267 118.107 724.767 114.107 718.94 110.56C716.84 108.84 716.36 107.127 717.5 105.42C718.073 104.56 719.27 103.693 721.09 102.82C730.983 98.0666 741.267 94.3566 751.94 91.69C755.58 90.2433 758.83 90.2833 761.69 91.81ZM737.5 113.96C743.24 118.973 748.933 124.437 754.58 130.35C754.813 130.603 754.967 130.56 755.04 130.22C756.7 122.473 757.84 114.983 758.46 107.75L758.99 100.96C759.157 98.88 758.16 98.1066 756 98.64C747.213 100.807 738.383 103.743 729.51 107.45C729.197 107.583 729.177 107.75 729.45 107.95L737.5 113.96Z" fill="#010070"/>
<path d="M931.71 94.25C931.743 94.91 931.76 95.5733 931.76 96.24C931.76 96.88 931.617 97.5167 931.33 98.15C929.523 102.13 928.183 106.267 927.31 110.56C926.117 112.98 925.437 115.54 925.27 118.24C925.261 118.397 925.215 118.548 925.136 118.681C925.058 118.813 924.949 118.923 924.82 119L924.56 119.16C924.482 119.207 924.415 119.271 924.365 119.349C924.315 119.427 924.282 119.516 924.27 119.61C923.97 121.81 923.797 124.023 923.75 126.25C923.523 127.323 923.05 128.283 922.33 129.13C922.124 129.38 922.024 129.692 922.05 130C922.35 133.727 921.583 137.213 919.75 140.46L921.21 129.5C923.277 117.313 926.777 105.563 931.71 94.25Z" fill="#42B542"/>
<path d="M527.31 99.19C535.77 101.13 543.933 103.913 551.8 107.54C551.847 107.561 551.888 107.595 551.918 107.637C551.948 107.679 551.966 107.729 551.971 107.781C551.976 107.833 551.968 107.887 551.947 107.935C551.925 107.984 551.892 108.027 551.85 108.06L544.04 114L544.01 113.78C544.002 113.719 543.97 113.659 543.919 113.604C543.868 113.55 543.799 113.503 543.72 113.47C537.673 110.99 531.433 109.167 525 108C523.673 107.607 523.077 108.023 523.21 109.25C522.443 104.67 522.207 101.837 522.5 100.75C523.16 98.2833 524.763 97.7633 527.31 99.19Z" fill="#B25DA3"/>
<path d="M756 98.64C758.16 98.1067 759.157 98.88 758.99 100.96L758.46 107.75C751.693 108.797 745.127 110.567 738.76 113.06C738.7 113.08 738.48 113.13 738.1 113.21C737.72 113.29 737.52 113.54 737.5 113.96L729.45 107.95C729.177 107.75 729.197 107.583 729.51 107.45C738.383 103.743 747.213 100.807 756 98.64Z" fill="#B25DA3"/>
<path d="M818.06 108.42C824.147 110.673 829.513 114.167 834.16 118.9C834.259 119.003 834.32 119.137 834.331 119.276C834.342 119.416 834.303 119.552 834.22 119.66L832.75 121.54C827.237 118.06 821.987 115.88 817 115C808.293 113.467 800.147 115.487 792.56 121.06C792.407 121.507 792.053 121.667 791.5 121.54C791.167 121.16 790.763 120.897 790.29 120.75L786.42 118.01C786.371 117.975 786.329 117.929 786.298 117.877C786.267 117.826 786.248 117.768 786.241 117.709C786.235 117.65 786.241 117.591 786.26 117.536C786.278 117.481 786.309 117.431 786.35 117.39C790.35 113.363 794.65 110.4 799.25 108.5C802.197 107.28 805.36 106.663 808.74 106.65C811.72 106.637 814.827 107.227 818.06 108.42Z" fill="#B6EDB1"/>
<path d="M758.46 107.75C757.84 114.983 756.7 122.473 755.04 130.22C754.967 130.56 754.813 130.603 754.58 130.35C748.933 124.437 743.24 118.973 737.5 113.96C737.52 113.54 737.72 113.29 738.1 113.21C738.48 113.13 738.7 113.08 738.76 113.06C745.127 110.567 751.693 108.797 758.46 107.75Z" fill="#FE85BA"/>
<path d="M525 108C531.433 109.167 537.673 110.99 543.72 113.47C543.799 113.503 543.868 113.55 543.919 113.604C543.97 113.659 544.002 113.719 544.01 113.78L544.04 114C538.033 119.16 532.33 124.643 526.93 130.45C526.677 130.717 526.513 130.67 526.44 130.31C524.993 123.343 523.917 116.323 523.21 109.25C523.077 108.023 523.673 107.607 525 108Z" fill="#FE85BA"/>
<path d="M817 115C821.987 115.88 827.237 118.06 832.75 121.54L828.46 128C823.28 136.013 819.64 144.68 817.54 154C816.073 158.993 815.047 164.077 814.46 169.25C813.347 176.563 812.673 183.923 812.44 191.33C812.38 193.243 812.54 193.26 812.92 191.38L816.71 172.75C819.73 161.277 824.077 150.777 829.75 141.25C832.477 136.67 836.047 132.253 840.46 128L844.85 131.94C844.958 132.036 845.097 132.099 845.25 132.122C845.403 132.145 845.566 132.127 845.72 132.07C851.96 129.677 858.137 128.237 864.25 127.75C872.903 127.057 880.977 129.06 888.47 133.76C889.077 134.133 889.47 134.637 889.65 135.27C889.71 135.467 889.789 135.642 889.877 135.775C889.966 135.907 890.061 135.993 890.15 136.02C890.317 136.073 890.503 136.067 890.71 136C892.357 142.293 891.967 148.46 889.54 154.5C886.473 152.127 883.223 150.033 879.79 148.22C874.63 145.5 869.28 144.17 863.74 144.23C858.347 144.29 853.217 145.697 848.35 148.45C841.057 152.577 835.927 158.923 832.96 167.49C831.547 171.557 830.123 175.623 828.69 179.69C823.61 191.87 814.463 199.307 801.25 202C800.15 202.227 799.247 202.06 798.54 201.5C794.68 191.867 790.347 182.45 785.54 173.25L781.99 166.18C781.834 165.861 781.767 165.539 781.8 165.26L782.37 160.65C782.41 160.334 782.534 160.033 782.731 159.778C782.928 159.523 783.19 159.324 783.49 159.2C790.73 156.2 795.613 151.427 798.14 144.88C799.773 140.66 800.013 136.523 798.86 132.47C797.64 128.21 795.187 124.567 791.5 121.54C792.053 121.667 792.407 121.507 792.56 121.06C800.147 115.487 808.293 113.467 817 115Z" fill="#4CD138"/>
<path d="M874.44 121.06C882.22 123.147 887.643 128.127 890.71 136C890.503 136.067 890.317 136.073 890.15 136.02C890.061 135.993 889.966 135.907 889.877 135.774C889.789 135.642 889.71 135.467 889.65 135.27C889.47 134.637 889.077 134.133 888.47 133.76C880.977 129.06 872.903 127.057 864.25 127.75C858.137 128.237 851.96 129.677 845.72 132.07C845.566 132.127 845.403 132.145 845.25 132.122C845.097 132.099 844.958 132.036 844.85 131.94L840.46 128C842.193 125.82 844.347 124.2 846.92 123.14C856.18 119.32 865.353 118.627 874.44 121.06Z" fill="#B6EDB1"/>
<path d="M790.29 120.75C790.763 120.897 791.167 121.16 791.5 121.54C795.187 124.567 797.64 128.21 798.86 132.47C800.013 136.523 799.773 140.66 798.14 144.88C795.613 151.427 790.73 156.2 783.49 159.2C783.19 159.324 782.928 159.523 782.731 159.778C782.534 160.033 782.41 160.334 782.37 160.65L781.8 165.26C781.767 165.539 781.834 165.861 781.99 166.18L785.54 173.25C785.86 174.89 785.72 175.253 785.12 174.34C783.633 172.093 782.323 169.75 781.19 167.31C780.49 166.363 780.29 165.337 780.59 164.23C780.683 163.89 780.713 163.563 780.68 163.25C780.527 161.823 780.813 160.6 781.54 159.58C781.973 158.973 782.94 158.3 784.44 157.56C791.387 154.14 795.887 149.017 797.94 142.19C799.113 138.29 798.603 134.237 796.41 130.03C796.383 129.97 796.063 129.21 795.45 127.75C794.85 126.343 793.777 125.39 792.23 124.89C791.902 124.781 791.638 124.581 791.49 124.33C790.83 123.23 790.43 122.037 790.29 120.75Z" fill="#001446"/>
<path d="M828.46 128C828.053 129.207 827.713 130.437 827.44 131.69C825.007 135.97 823.423 139.22 822.69 141.44C820.83 147.053 819.517 150.823 818.75 152.75C818.597 153.143 818.193 153.56 817.54 154C819.64 144.68 823.28 136.013 828.46 128Z" fill="#001446"/>
<path d="M785.72 131.25C789.94 136.257 789.613 141.093 784.74 145.76C784.247 146.233 784.027 146.13 784.08 145.45L785.28 131.39C785.313 130.997 785.46 130.95 785.72 131.25Z" fill="#CDEEFF"/>
<path d="M584.7 137.79C586.473 138.823 586.893 140.15 585.96 141.77C585.806 142.033 585.538 142.233 585.21 142.33C583.73 142.757 582.24 143.127 580.74 143.44C572.707 145.107 565.473 148.473 559.04 153.54C556.793 155.307 554.617 156.947 552.51 158.46C552.211 158.672 551.859 158.795 551.494 158.814C551.13 158.834 550.767 158.749 550.45 158.57C549.39 157.97 549.04 157.06 549.4 155.84C551.967 147.3 557 141.183 564.5 137.49C567.96 135.79 571.273 134.94 574.44 134.94C578.013 134.94 581.433 135.89 584.7 137.79Z" fill="#010070"/>
<path d="M715.69 136.06C725.17 139.58 731.253 145.997 733.94 155.31C734.727 158.057 734.007 159.177 731.78 158.67C730.973 158.483 730.1 157.98 729.16 157.16C720.313 149.473 710.073 144.523 698.44 142.31C696.987 141.45 696.577 140.463 697.21 139.35C697.537 138.77 698.203 138.19 699.21 137.61C704.59 134.497 710.083 133.98 715.69 136.06Z" fill="#010070"/>
<path d="M879.79 148.22C883.223 150.033 886.473 152.127 889.54 154.5C888.26 157.887 886.45 161.297 884.11 164.73C884.076 164.778 884.032 164.818 883.98 164.845C883.929 164.873 883.871 164.888 883.812 164.888C883.754 164.889 883.696 164.877 883.643 164.851C883.591 164.825 883.545 164.787 883.51 164.74C881.083 161.533 878.273 159.037 875.08 157.25C870.007 154.403 864.953 153.557 859.92 154.71C855.42 155.73 851.287 158.163 847.52 162.01C843.653 165.97 841.23 170.717 840.25 176.25C838.823 184.33 840.623 191.537 845.65 197.87C848.017 200.843 850.847 203.53 854.14 205.93C854.191 205.966 854.231 206.015 854.259 206.07C854.286 206.126 854.3 206.188 854.298 206.25C854.296 206.313 854.278 206.373 854.247 206.427C854.216 206.481 854.173 206.527 854.12 206.56C839.34 215.773 823.597 222.47 806.89 226.65C806.757 226.684 806.617 226.664 806.499 226.594C806.381 226.525 806.295 226.412 806.26 226.28C804.093 217.887 801.52 209.627 798.54 201.5C799.247 202.06 800.15 202.227 801.25 202C814.463 199.307 823.61 191.87 828.69 179.69C830.123 175.623 831.547 171.557 832.96 167.49C835.927 158.923 841.057 152.577 848.35 148.45C853.217 145.697 858.347 144.29 863.74 144.23C869.28 144.17 874.63 145.5 879.79 148.22Z" fill="#369249"/>
<path d="M901.21 157.25C900.41 157.057 900.07 157.37 900.19 158.19C899.97 159.87 899.933 161.553 900.08 163.24C900.607 169.067 900.843 174.903 900.79 180.75C900.837 186.977 900.767 193.203 900.58 199.43C900.567 199.75 900.563 199.753 900.57 199.44C900.59 194.273 900.317 188.543 899.75 182.25C899.043 174.443 898.87 166.19 899.23 157.49C899.243 157.137 899.365 156.825 899.57 156.62C900.243 155.927 900.79 156.137 901.21 157.25Z" fill="#001446"/>
<path d="M901.21 157.25C901.237 157.537 901.347 157.787 901.54 158C905.54 166.393 907.943 175.227 908.75 184.5C908.83 185.407 909.01 188.99 909.29 195.25L907.29 204.5C905.87 208.367 903.88 211.903 901.32 215.11C901.113 215.37 901.007 215.33 901 214.99L900.79 180.75C900.843 174.903 900.607 169.067 900.08 163.24C899.933 161.553 899.97 159.87 900.19 158.19C900.07 157.37 900.41 157.057 901.21 157.25Z" fill="#39C026"/>
<path d="M901.54 158C902.607 158.473 903.397 159.247 903.91 160.32C906.937 166.64 908.987 173.263 910.06 180.19C909.78 185.203 909.58 190.223 909.46 195.25H909.29C909.01 188.99 908.83 185.407 908.75 184.5C907.943 175.227 905.54 166.393 901.54 158Z" fill="#001446"/>
<path d="M654.92 170.88C663.853 175.093 669.63 182.217 672.25 192.25C674.31 200.143 675.03 208.597 674.41 217.61C673.857 225.517 673.603 229.783 673.65 230.41C674.21 237.75 677.24 243.367 682.74 247.26C686.913 250.22 693.203 252.18 701.61 253.14C708.11 253.88 714.823 254 721.75 253.5C741.297 252.087 757.2 258.92 769.46 274C769.647 274.787 769.447 275.347 768.86 275.68C768.593 275.827 768.42 275.947 768.34 276.04C768.06 276.393 768.113 276.643 768.5 276.79C763.713 279.697 759.7 283.433 756.46 288C756.013 287.907 755.667 287.993 755.42 288.26C755.173 288.527 755.043 288.667 755.03 288.68C742.45 298.727 728.857 307.153 714.25 313.96C713.117 313.987 703.533 314 685.5 314C609 314 570.75 314 570.75 314C560.083 314.207 549.417 314.193 538.75 313.96C532.01 310.173 525.223 306.473 518.39 302.86C518.37 302.853 518.17 302.713 517.79 302.44C517.45 302.193 517.033 302.13 516.54 302.25C514.54 296.49 511.43 291.407 507.21 287C510.963 276.147 517.247 267.917 526.06 262.31C537.067 255.317 549.133 252.357 562.26 253.43C571.047 254.15 579.763 253.687 588.41 252.04C603.543 249.153 610.573 239.973 609.5 224.5C608.933 216.347 608.683 210.513 608.75 207C608.877 200.293 610.203 193.837 612.73 187.63C615.87 179.91 620.98 174.303 628.06 170.81C632.353 168.697 636.9 167.67 641.7 167.73C646.173 167.783 650.58 168.833 654.92 170.88ZM628.63 240.39C631.077 242.097 633.65 243.117 636.35 243.45C636.722 243.497 637.063 243.667 637.308 243.927C637.554 244.188 637.686 244.52 637.68 244.86L637.57 251.25C637.563 251.532 637.412 251.845 637.15 252.12C633.563 255.853 629.43 257.147 624.75 256C618.757 254.527 615.143 250.577 613.91 244.15C613.757 243.363 613.56 242.793 613.32 242.44C612.733 241.567 612.06 241.43 611.3 242.03C610.807 242.423 610.517 243.043 610.43 243.89C609.983 248.537 610.953 252.583 613.34 256.03C615.62 259.31 618.757 261.623 622.75 262.97C628.583 264.93 634.69 263.933 641.07 259.98C641.254 259.867 641.468 259.809 641.686 259.815C641.904 259.82 642.117 259.888 642.3 260.01C648.533 264.21 654.72 265.157 660.86 262.85C664.7 261.403 667.687 259.11 669.82 255.97C672.073 252.663 673.08 248.807 672.84 244.4C672.793 243.507 672.553 242.803 672.12 242.29C671.167 241.143 670.23 241.483 669.31 243.31C669.077 244.677 668.72 246.003 668.24 247.29C667.773 248.563 667.087 249.74 666.18 250.82C660.587 257.533 653.977 258.13 646.35 252.61C646.078 252.416 645.884 252.14 645.8 251.83C645.107 249.35 644.993 246.84 645.46 244.3C645.486 244.159 645.557 244.029 645.664 243.927C645.772 243.825 645.91 243.757 646.06 243.73C649.92 243.063 653.13 241.633 655.69 239.44C657.81 237.62 658.593 235.497 658.04 233.07C657.693 231.543 656.807 230.247 655.38 229.18C654.067 228.193 652.587 227.48 650.94 227.04C646.94 225.967 642.877 225.62 638.75 226C635.323 226.313 632.383 227.003 629.93 228.07C627.39 229.177 625.82 230.817 625.22 232.99C624.447 235.79 625.583 238.257 628.63 240.39Z" fill="white"/>
<path d="M814.46 169.25C814.173 171.183 814.923 172.35 816.71 172.75L812.92 191.38C812.54 193.26 812.38 193.243 812.44 191.33C812.673 183.923 813.347 176.563 814.46 169.25Z" fill="#001446"/>
<path d="M569.239 236.435C566.003 235.893 562.941 234.51 560.228 232.363C557.514 230.217 555.202 227.35 553.423 223.926C551.644 220.501 550.434 216.587 549.86 212.406C549.287 208.224 549.363 203.858 550.083 199.557C551.536 190.87 555.526 182.973 561.175 177.604C566.823 172.234 573.667 169.832 580.201 170.925C586.735 172.019 592.425 176.519 596.017 183.434C599.61 190.35 600.811 199.116 599.357 207.803C597.904 216.49 593.914 224.387 588.266 229.756C582.617 235.126 575.773 237.528 569.239 236.435ZM584.599 201.028C585.671 200.783 586.667 200.248 587.528 199.456C588.39 198.663 589.1 197.627 589.619 196.408C590.138 195.189 590.456 193.81 590.553 192.35C590.651 190.89 590.527 189.378 590.188 187.899C589.505 184.913 587.988 182.247 585.973 180.486C583.957 178.726 581.608 178.015 579.442 178.511C578.369 178.757 577.373 179.292 576.512 180.084C575.65 180.877 574.94 181.913 574.421 183.132C573.902 184.351 573.584 185.73 573.487 187.19C573.389 188.65 573.513 190.162 573.852 191.641C574.535 194.627 576.052 197.293 578.067 199.054C580.083 200.814 582.432 201.525 584.599 201.028ZM566.8 227.219C567.332 226.974 567.792 226.588 568.156 226.083C568.519 225.579 568.777 224.966 568.916 224.28C569.055 223.594 569.072 222.847 568.966 222.084C568.861 221.32 568.634 220.554 568.299 219.829C567.964 219.104 567.527 218.435 567.015 217.859C566.502 217.284 565.922 216.813 565.31 216.474C564.697 216.136 564.063 215.935 563.443 215.885C562.824 215.834 562.231 215.935 561.7 216.181C560.626 216.677 559.865 217.734 559.584 219.12C559.303 220.506 559.525 222.107 560.201 223.571C560.536 224.295 560.973 224.965 561.485 225.54C561.998 226.116 562.578 226.587 563.19 226.926C563.803 227.264 564.437 227.465 565.057 227.515C565.676 227.565 566.269 227.465 566.8 227.219Z" fill="#000072"/>
<path d="M717.704 236.434C711.168 237.516 704.328 235.102 698.689 229.723C693.05 224.343 689.074 216.439 687.635 207.75C686.923 203.447 686.855 199.081 687.436 194.901C688.016 190.721 689.233 186.808 691.018 183.387C692.803 179.966 695.12 177.103 697.838 174.961C700.555 172.82 703.62 171.442 706.856 170.906C713.392 169.824 720.232 172.238 725.871 177.617C731.51 182.997 735.486 190.901 736.925 199.59C737.637 203.893 737.705 208.259 737.124 212.439C736.544 216.619 735.327 220.532 733.542 223.953C731.757 227.374 729.44 230.237 726.722 232.379C724.005 234.52 720.94 235.898 717.704 236.434ZM702.391 201.018C704.555 201.514 706.902 200.803 708.916 199.042C710.929 197.281 712.445 194.615 713.129 191.629C713.813 188.643 713.609 185.582 712.562 183.12C711.516 180.659 709.712 178.997 707.548 178.502C705.385 178.006 703.038 178.717 701.024 180.478C699.011 182.239 697.495 184.905 696.811 187.891C696.127 190.877 696.331 193.938 697.378 196.4C698.424 198.861 700.228 200.523 702.391 201.018ZM720.151 227.196C721.217 227.695 722.512 227.594 723.749 226.915C724.987 226.236 726.067 225.034 726.751 223.573C727.089 222.85 727.321 222.086 727.432 221.323C727.542 220.56 727.531 219.815 727.397 219.129C727.263 218.442 727.01 217.829 726.651 217.324C726.293 216.819 725.837 216.431 725.309 216.184C724.243 215.685 722.948 215.786 721.711 216.465C720.473 217.144 719.393 218.346 718.709 219.807C718.371 220.53 718.139 221.294 718.028 222.057C717.918 222.82 717.929 223.565 718.063 224.251C718.197 224.938 718.45 225.551 718.809 226.056C719.167 226.561 719.623 226.949 720.151 227.196Z" fill="#000072"/>
<path d="M1068.75 175.21L1067.25 175.29C1064.94 173.977 1062.44 173.473 1059.75 173.78C1047.44 175.2 1036.83 180.173 1027.94 188.7C1027.75 188.875 1027.54 188.984 1027.35 189.01L1027 189.04L1022.45 186.07C1022.4 186.037 1022.36 185.993 1022.33 185.941C1022.3 185.889 1022.28 185.831 1022.28 185.77C1022.28 185.709 1022.29 185.648 1022.31 185.591C1022.34 185.534 1022.37 185.482 1022.42 185.44C1028.59 179.713 1035.51 175.463 1043.19 172.69C1051.86 169.557 1060.38 170.397 1068.75 175.21Z" fill="#B6EDB1"/>
<path d="M1059.75 173.78C1062.44 173.473 1064.94 173.977 1067.25 175.29C1070.72 177.277 1073.91 179.63 1076.82 182.35C1077.33 182.83 1078.03 183.3 1078.93 183.76C1079.71 184.167 1080.42 184.667 1081.06 185.26C1082.79 186.88 1083.71 187.747 1083.82 187.86C1085.03 189.093 1085.68 190.723 1085.75 192.75C1085.9 196.883 1085.5 200.72 1084.55 204.26C1083.38 208.607 1082.09 212.913 1080.67 217.18C1079.1 221.907 1078.36 226.727 1078.45 231.64C1078.5 233.953 1078.95 236.823 1079.81 240.25C1081.02 245.023 1081.77 247.837 1082.06 248.69C1084.67 256.17 1084.29 263.003 1080.94 269.19C1079.58 271.697 1077.11 273.55 1073.54 274.75C1073.51 274.243 1073.41 273.743 1073.25 273.25C1072.52 251.637 1065.84 232.137 1053.21 214.75C1046.16 204.97 1037.69 196.637 1027.79 189.75C1027.59 189.457 1027.33 189.22 1027 189.04L1027.35 189.01C1027.54 188.984 1027.75 188.875 1027.94 188.7C1036.83 180.173 1047.44 175.2 1059.75 173.78Z" fill="#4CD138"/>
<path d="M1067.25 175.29L1068.75 175.21C1075.12 178.53 1081.35 183.48 1087.44 190.06C1092.96 196.04 1098.14 202.513 1102.98 209.48C1103.07 209.612 1103.11 209.772 1103.1 209.932C1103.08 210.091 1103.01 210.24 1102.89 210.35C1099.85 213.31 1097.4 216.75 1095.53 220.67C1092.39 227.25 1091.76 233.683 1093.65 239.97C1095.06 244.637 1097.79 248.877 1101.86 252.69C1105.68 256.263 1110.13 258.943 1115.21 260.73C1115.4 260.798 1115.57 260.92 1115.69 261.081C1115.82 261.243 1115.89 261.436 1115.91 261.64C1116.7 271.093 1116.23 280.097 1114.5 288.65C1111.87 301.69 1105.64 312.65 1095.79 321.53C1090.06 326.703 1083.53 330.997 1076.2 334.41C1075.97 334.519 1075.71 334.541 1075.47 334.473C1075.23 334.405 1075.02 334.251 1074.88 334.04C1068.07 323.733 1060.19 314.373 1051.25 305.96C1046.94 302.04 1042.41 298.397 1037.65 295.03C1037.53 294.948 1037.45 294.831 1037.4 294.694C1037.36 294.558 1037.36 294.409 1037.4 294.27C1039.07 288.73 1039.94 283.39 1040 278.25C1040.04 275.037 1039.47 271.62 1038.29 268C1037.19 264.12 1035.32 260.807 1032.69 258.06C1026.16 251.253 1018.16 249.13 1008.69 251.69C1008.14 252.083 1007.58 252.117 1007 251.79C1010.53 249.283 1014.84 247.667 1019.94 246.94C1028.19 245.753 1035.23 247.757 1041.04 252.95C1043.2 254.877 1045.2 256.967 1047.04 259.22C1049.43 262.147 1051.95 264.957 1054.6 267.65C1059.41 272.537 1065.28 274.987 1072.21 275C1073.4 283.647 1073.84 283.563 1073.54 274.75C1077.11 273.55 1079.58 271.697 1080.94 269.19C1084.29 263.003 1084.67 256.17 1082.06 248.69C1081.77 247.837 1081.02 245.023 1079.81 240.25C1078.95 236.823 1078.5 233.953 1078.45 231.64C1078.36 226.727 1079.1 221.907 1080.67 217.18C1082.09 212.913 1083.38 208.607 1084.55 204.26C1085.5 200.72 1085.9 196.883 1085.75 192.75C1085.68 190.723 1085.03 189.093 1083.82 187.86C1083.71 187.747 1082.79 186.88 1081.06 185.26C1080.42 184.667 1079.71 184.167 1078.93 183.76C1078.03 183.3 1077.33 182.83 1076.82 182.35C1073.91 179.63 1070.72 177.277 1067.25 175.29Z" fill="#369249"/>
<path d="M573.852 191.641C575.276 197.859 580.087 202.062 584.599 201.029C589.11 199.995 591.613 194.117 590.189 187.899C588.764 181.681 583.953 177.478 579.441 178.512C574.93 179.545 572.427 185.423 573.852 191.641Z" fill="white"/>
<path d="M696.811 187.891C695.387 194.109 697.885 199.986 702.391 201.018C706.897 202.05 711.705 197.847 713.129 191.629C714.553 185.411 712.054 179.534 707.549 178.502C703.043 177.47 698.235 181.674 696.811 187.891Z" fill="white"/>
<path d="M986.75 182.29C986.95 183.137 986.613 183.473 985.74 183.3C980.293 182.2 974.797 181.753 969.25 181.96C954.783 182.493 942.557 187.853 932.57 198.04C932.537 198.073 932.253 198.46 931.72 199.2C931.42 199.62 931.013 199.9 930.5 200.04L924.4 200.31C923.373 200.357 923.157 199.993 923.75 199.22C930.41 190.54 938.587 184.607 948.28 181.42C954 179.547 960.393 178.75 967.46 179.03C973.98 179.283 980.41 180.37 986.75 182.29Z" fill="#B6EDB1"/>
<path d="M985.74 183.3C986.613 183.473 986.95 183.137 986.75 182.29C994.41 184.683 1001.83 187.683 1009 191.29C1026.59 198.497 1041.24 209.567 1052.96 224.5C1063.97 239.54 1070.39 256.373 1072.21 275C1065.28 274.987 1059.41 272.537 1054.6 267.65C1051.95 264.957 1049.43 262.147 1047.04 259.22C1045.2 256.967 1043.2 254.877 1041.04 252.95C1035.23 247.757 1028.19 245.753 1019.94 246.94C1014.84 247.667 1010.53 249.283 1007 251.79L999.75 255.96C992.27 261.787 986.77 269.12 983.25 277.96L981.76 281.08C981.702 281.2 981.594 281.291 981.459 281.336C981.324 281.38 981.171 281.375 981.03 281.32C975.197 279.04 969.52 276.42 964 273.46C968.18 268.927 971.577 264.087 974.19 258.94C977.317 252.78 978.677 246.137 978.27 239.01C977.47 224.937 970.66 215.147 957.84 209.64C956.853 209.213 955.823 209.097 954.75 209.29C949.023 204.863 942.607 202.003 935.5 200.71L930.5 200.04C931.013 199.9 931.42 199.62 931.72 199.2C932.253 198.46 932.537 198.073 932.57 198.04C942.557 187.853 954.783 182.493 969.25 181.96C974.797 181.753 980.293 182.2 985.74 183.3Z" fill="#4CD138"/>
<path d="M1027.79 189.75C1037.69 196.637 1046.16 204.97 1053.21 214.75C1052.43 214.45 1051.59 213.803 1050.69 212.81C1045.63 207.25 1039.34 201.043 1031.81 194.19C1030.03 193.323 1028.48 192.157 1027.15 190.69C1027.13 190.661 1027.11 190.626 1027.1 190.588C1027.1 190.55 1027.11 190.511 1027.12 190.474C1027.14 190.437 1027.16 190.403 1027.2 190.376C1027.23 190.349 1027.27 190.33 1027.31 190.32C1027.57 190.26 1027.73 190.07 1027.79 189.75Z" fill="#001446"/>
<path d="M1009 191.29C1009.81 191.143 1010.74 191.277 1011.81 191.69C1027.42 197.65 1040.38 207.19 1050.69 220.31C1052.2 221.31 1052.96 222.707 1052.96 224.5C1041.24 209.567 1026.59 198.497 1009 191.29Z" fill="#001446"/>
<path d="M909.29 195.25H909.46C910.313 198.803 909.59 201.887 907.29 204.5L909.29 195.25Z" fill="#939393"/>
<path d="M935.5 200.71C942.607 202.003 949.023 204.863 954.75 209.29V209.46C953.597 209.6 952.41 209.217 951.19 208.31C946.877 205.117 941.76 202.95 935.84 201.81C935.593 201.763 935.393 201.67 935.24 201.53C934.76 201.07 934.847 200.797 935.5 200.71Z" fill="#001446"/>
<path d="M954.75 209.29C955.823 209.097 956.853 209.213 957.84 209.64C970.66 215.147 977.47 224.937 978.27 239.01C978.677 246.137 977.317 252.78 974.19 258.94C971.577 264.087 968.18 268.927 964 273.46C956.987 269.62 950.17 265.443 943.55 260.93C942.977 260.537 943.037 260.303 943.73 260.23C947.177 259.85 950.45 258.923 953.55 257.45C956.69 255.963 959.4 253.993 961.68 251.54C967.287 245.493 969.06 238.063 967 229.25C965.2 221.55 961.117 214.953 954.75 209.46V209.29Z" fill="#369249"/>
<path d="M918.14 213.5C911.427 224.967 907.667 237.137 906.86 250.01C906.153 261.237 907.127 272.313 909.78 283.24C911.78 291.5 914.383 299.563 917.59 307.43C925.25 326.183 930.95 343.143 934.69 358.31C938.657 374.417 939.717 391.123 937.87 408.43C937.847 408.654 937.744 408.862 937.579 409.012C937.414 409.162 937.2 409.243 936.98 409.24L924.82 409.2C924.757 409.201 924.694 409.188 924.636 409.162C924.579 409.135 924.527 409.097 924.486 409.048C924.444 409 924.413 408.943 924.395 408.881C924.376 408.819 924.371 408.754 924.38 408.69C926.167 395.337 926.29 382.69 924.75 370.75C922.35 352.177 917.617 333.67 910.55 315.23C906.77 305.377 904.723 299.973 904.41 299.02C902.423 293 900.953 287.41 900 282.25C898.773 275.623 898.297 268.037 898.57 259.49C899.05 244.277 903.22 230.263 911.08 217.45C912 215.95 912.913 214.94 913.82 214.42C914.927 213.78 916.283 213.35 917.89 213.13C918.23 213.083 918.313 213.207 918.14 213.5Z" fill="#39C026"/>
<path d="M560.201 223.571C561.61 226.619 564.564 228.252 566.8 227.219C569.036 226.186 569.707 222.877 568.299 219.829C566.89 216.781 563.936 215.148 561.7 216.181C559.464 217.214 558.793 220.523 560.201 223.571Z" fill="#B198C9"/>
<path d="M718.709 219.807C717.285 222.847 717.93 226.156 720.151 227.196C722.371 228.236 725.326 226.614 726.751 223.573C728.175 220.533 727.53 217.224 725.309 216.184C723.089 215.144 720.134 216.766 718.709 219.807Z" fill="#B198C9"/>
<path d="M792.29 218C798.03 234.78 800.177 252.123 798.73 270.03C798.715 270.219 798.625 270.395 798.481 270.519C798.337 270.642 798.149 270.704 797.96 270.69C787.507 269.883 777.687 271.917 768.5 276.79C768.113 276.643 768.06 276.393 768.34 276.04C768.42 275.947 768.593 275.827 768.86 275.68C769.447 275.347 769.647 274.787 769.46 274C769.547 273.873 769.657 273.787 769.79 273.74C770.137 273.607 770.353 273.487 770.44 273.38C783.527 257.3 790.81 238.84 792.29 218Z" fill="#676789"/>
<path d="M650.94 227.04C652.587 227.48 654.067 228.193 655.38 229.18C656.807 230.247 657.693 231.543 658.04 233.07C658.593 235.497 657.81 237.62 655.69 239.44C653.13 241.633 649.92 243.063 646.06 243.73C645.91 243.757 645.772 243.825 645.664 243.927C645.557 244.029 645.486 244.159 645.46 244.3C644.993 246.84 645.107 249.35 645.8 251.83C645.884 252.14 646.078 252.416 646.35 252.61C653.977 258.13 660.587 257.533 666.18 250.82C667.087 249.74 667.773 248.563 668.24 247.29C668.72 246.003 669.077 244.677 669.31 243.31C670.23 241.483 671.167 241.143 672.12 242.29C672.553 242.803 672.793 243.507 672.84 244.4C673.08 248.807 672.073 252.663 669.82 255.97C667.687 259.11 664.7 261.403 660.86 262.85C654.72 265.157 648.533 264.21 642.3 260.01C642.117 259.888 641.904 259.82 641.686 259.815C641.468 259.809 641.254 259.867 641.07 259.98C634.69 263.933 628.583 264.93 622.75 262.97C618.757 261.623 615.62 259.31 613.34 256.03C610.953 252.583 609.983 248.537 610.43 243.89C610.517 243.043 610.807 242.423 611.3 242.03C612.06 241.43 612.733 241.567 613.32 242.44C613.56 242.793 613.757 243.363 613.91 244.15C615.143 250.577 618.757 254.527 624.75 256C629.43 257.147 633.563 255.853 637.15 252.12C637.412 251.845 637.563 251.532 637.57 251.25L637.68 244.86C637.686 244.52 637.554 244.188 637.308 243.927C637.063 243.667 636.722 243.497 636.35 243.45C633.65 243.117 631.077 242.097 628.63 240.39C625.583 238.257 624.447 235.79 625.22 232.99C625.82 230.817 627.39 229.177 629.93 228.07C632.383 227.003 635.323 226.313 638.75 226C642.877 225.62 646.94 225.967 650.94 227.04Z" fill="#010070"/>
<path d="M999.75 255.96C1000.56 255.82 1000.75 255.93 1000.32 256.29C994.633 261.097 990.297 266.437 987.31 272.31C986.03 274.83 984.677 276.713 983.25 277.96C986.77 269.12 992.27 261.787 999.75 255.96Z" fill="#001446"/>
<path d="M1038.29 268C1039.47 271.62 1040.04 275.037 1040 278.25C1039.94 283.39 1039.07 288.73 1037.4 294.27C1037.36 294.409 1037.36 294.558 1037.4 294.694C1037.45 294.831 1037.53 294.948 1037.65 295.03C1042.41 298.397 1046.94 302.04 1051.25 305.96C1049.63 306.027 1048.33 305.553 1047.34 304.54C1045.95 303.12 1045.25 302.403 1045.24 302.39C1042.42 300.203 1039.4 297.727 1036.19 294.96C1036.05 294.839 1035.94 294.69 1035.87 294.523C1035.79 294.355 1035.75 294.174 1035.76 293.99C1035.76 293.807 1035.8 293.626 1035.88 293.46C1035.96 293.295 1036.07 293.148 1036.21 293.03C1036.77 292.563 1037.1 291.967 1037.19 291.24C1037.59 288.2 1038.19 285.203 1039 282.25C1039.23 279.67 1039.23 277.087 1039 274.5C1038.21 272.413 1037.98 270.247 1038.29 268Z" fill="#000071"/>
<path d="M793.5 281.6C806.04 281.713 816.853 285.783 825.94 293.81C827.987 295.617 829.937 298.013 831.79 301C830.417 305.62 827.883 308.85 824.19 310.69C820.137 312.71 815.713 313.74 810.92 313.78C808.187 313.807 803.75 313.34 797.61 312.38C785.51 310.48 773.877 306.937 762.71 301.75C764.237 294.763 768.163 289.59 774.49 286.23C780.417 283.077 786.753 281.533 793.5 281.6Z" fill="white"/>
<path d="M482.06 285.44C489.053 287.233 494.963 290.503 499.79 295.25C498.377 302.643 494.18 307.687 487.2 310.38C482.973 312.013 479.303 313.033 476.19 313.44C464.09 315.02 451.36 315.04 438 313.5C436.207 312.973 434.387 312.557 432.54 312.25C432.28 305.997 434.12 300.767 438.06 296.56C443.493 290.76 450.537 286.887 459.19 284.94C466.617 283.267 474.24 283.433 482.06 285.44Z" fill="white"/>
<path d="M756.46 288C751.22 296.027 750.157 304.597 753.27 313.71C753.287 313.764 753.292 313.821 753.284 313.877C753.276 313.933 753.255 313.987 753.222 314.032C753.19 314.078 753.148 314.116 753.099 314.141C753.05 314.167 752.995 314.18 752.94 314.18L714.25 313.96C728.857 307.153 742.45 298.727 755.03 288.68C755.043 288.667 755.173 288.527 755.42 288.26C755.667 287.993 756.013 287.907 756.46 288Z" fill="#B2B2D4"/>
<path d="M499.79 295.25C504.35 299.743 506.67 304.743 506.75 310.25C506.843 316.75 503.907 321.143 497.94 323.43C493.207 325.25 488.31 326.37 483.25 326.79C472.65 327.677 462.067 327.497 451.5 326.25C449.767 326.043 447.333 325.52 444.2 324.68C439.96 323.54 436.663 321.377 434.31 318.19C433.163 316.637 432.573 314.657 432.54 312.25C434.387 312.557 436.207 312.973 438 313.5C451.36 315.04 464.09 315.02 476.19 313.44C479.303 313.033 482.973 312.013 487.2 310.38C494.18 307.687 498.377 302.643 499.79 295.25Z" fill="#B2B2D4"/>
<path d="M831.79 301C835.763 307.247 836.667 313.663 834.5 320.25C833.193 324.217 830.277 326.8 825.75 328C822.77 328.787 819.423 329.063 815.71 328.83C813.577 328.697 810.273 328.28 805.8 327.58C794.153 325.76 783.017 322.243 772.39 317.03C768.65 315.197 765.833 312.79 763.94 309.81C762.487 307.53 762.077 304.843 762.71 301.75C773.877 306.937 785.51 310.48 797.61 312.38C803.75 313.34 808.187 313.807 810.92 313.78C815.713 313.74 820.137 312.71 824.19 310.69C827.883 308.85 830.417 305.62 831.79 301Z" fill="#B2B2D4"/>
<path d="M516.54 302.25C517.033 302.13 517.45 302.193 517.79 302.44C518.17 302.713 518.37 302.853 518.39 302.86C525.223 306.473 532.01 310.173 538.75 313.96L518.44 314.06C518.306 314.06 518.178 314.009 518.083 313.917C517.988 313.826 517.933 313.701 517.93 313.57C517.837 309.75 517.373 305.977 516.54 302.25Z" fill="#B2B2D4"/>
<path d="M294.5 326.63C337.833 326.71 381.6 326.75 425.8 326.75C426.449 326.75 427.073 326.992 427.55 327.43C430.53 330.19 433.847 332.31 437.5 333.79C437.427 334.663 437.07 334.977 436.43 334.73C436.043 334.577 435.733 334.5 435.5 334.5C381.167 334.5 326.833 334.5 272.5 334.5C261.2 334.833 251.84 339.133 244.42 347.4C244.38 347.447 244.19 347.75 243.85 348.31C243.537 348.81 243.073 348.873 242.46 348.5C248.72 333.533 260.15 326.367 276.75 327C282.663 326.74 288.58 326.617 294.5 326.63Z" fill="#EEEDEF"/>
<path d="M513.39 326.75H764.95C766.11 326.75 767.207 327.01 768.24 327.53C773.333 330.07 778.85 332.227 784.79 334C784.777 334.76 784.257 334.983 783.23 334.67C782.87 334.557 782.5 334.5 782.12 334.5C689.953 334.5 597.913 334.5 506 334.5C504.047 334.5 502.393 334.717 501.04 335.15C500.78 335.237 500.583 335.253 500.45 335.2C500.203 335.1 500.123 334.867 500.21 334.5C503.763 333.067 507.743 330.627 512.15 327.18C512.506 326.902 512.942 326.75 513.39 326.75Z" fill="#EEEDEF"/>
<path d="M437.5 333.79C442.567 335.73 447.567 336.967 452.5 337.5C459.113 338.213 466.197 338.463 473.75 338.25C484.09 337.963 492.91 336.713 500.21 334.5C500.123 334.867 500.203 335.1 500.45 335.2C500.583 335.253 500.78 335.237 501.04 335.15C502.393 334.717 504.047 334.5 506 334.5C597.913 334.5 689.953 334.5 782.12 334.5C782.5 334.5 782.87 334.557 783.23 334.67C784.257 334.983 784.777 334.76 784.79 334C790.797 335.687 796.86 337.14 802.98 338.36C808.513 339.467 814.103 339.973 819.75 339.88C824.243 339.807 828.77 338.82 833.33 336.92C833.498 336.85 833.684 336.834 833.862 336.875C834.04 336.917 834.2 337.013 834.32 337.15C840.22 343.877 843.173 351.577 843.18 360.25C843.227 467.417 843.257 574.583 843.27 681.75C843.27 692.443 839.367 701.13 831.56 707.81C827.247 711.51 822.363 713.877 816.91 714.91C814.85 715.303 809.563 715.5 801.05 715.5C447.683 715.5 271 715.5 271 715.5C258.593 714.22 249.55 708.107 243.87 697.16C241.837 693.227 240.713 688.84 240.5 684C240.273 678.747 240.157 674.663 240.15 671.75C240.097 568.083 240.213 464.417 240.5 360.75C240.273 356.523 240.927 352.44 242.46 348.5C243.073 348.873 243.537 348.81 243.85 348.31C244.19 347.75 244.38 347.447 244.42 347.4C251.84 339.133 261.2 334.833 272.5 334.5C326.833 334.5 381.167 334.5 435.5 334.5C435.733 334.5 436.043 334.577 436.43 334.73C437.07 334.977 437.427 334.663 437.5 333.79ZM267 672.04C268.407 675.38 270.573 677.367 273.5 678C276.78 678.713 282.28 678.963 290 678.75C290 678.75 461.5 678.813 804.5 678.94C806.447 678.947 808.36 678.703 810.24 678.21C813.493 677.357 815.497 675.3 816.25 672.04C819.41 671.987 821.327 670.473 822 667.5C822.293 666.193 822.377 661.527 822.25 653.5C822.25 653.5 822.313 561 822.44 376C822.447 373.833 822.237 371.98 821.81 370.44C821.237 368.34 819.8 367.11 817.5 366.75C815.627 366.457 811.71 366.373 805.75 366.5C637.197 366.5 468.64 366.5 300.08 366.5C296.813 366.5 291.09 366.467 282.91 366.4C272.403 366.32 266.683 366.437 265.75 366.75C262.59 367.81 261.173 370.06 261.5 373.5C261.5 471.08 261.5 568.663 261.5 666.25C261.5 669.75 263.333 671.68 267 672.04Z" fill="#CCCCCC"/>
<path d="M300.08 366.5C468.64 366.5 637.197 366.5 805.75 366.5C811.71 366.373 815.627 366.457 817.5 366.75C819.8 367.11 821.237 368.34 821.81 370.44C822.237 371.98 822.447 373.833 822.44 376C822.313 561 822.25 653.5 822.25 653.5C822.377 661.527 822.293 666.193 822 667.5C821.327 670.473 819.41 671.987 816.25 672.04H267C263.333 671.68 261.5 669.75 261.5 666.25C261.5 568.663 261.5 471.08 261.5 373.5C261.173 370.06 262.59 367.81 265.75 366.75C266.683 366.437 272.403 366.32 282.91 366.4C291.09 366.467 296.813 366.5 300.08 366.5ZM430.71 377.69L332.9 377.56C332.79 377.561 332.682 377.59 332.587 377.645C332.491 377.7 332.412 377.778 332.356 377.872C332.299 377.967 332.268 378.074 332.266 378.184C332.263 378.294 332.288 378.403 332.34 378.5L478.2 660.36C478.272 660.496 478.38 660.61 478.51 660.689C478.64 660.768 478.789 660.81 478.94 660.81L577.86 661C577.952 660.999 578.042 660.975 578.121 660.931C578.201 660.886 578.268 660.821 578.316 660.743C578.364 660.665 578.392 660.576 578.396 660.485C578.4 660.393 578.381 660.302 578.34 660.22L432.58 378.84C432.402 378.496 432.133 378.207 431.804 378.004C431.474 377.801 431.096 377.693 430.71 377.69ZM547.13 377.68L489.34 377.5C489.251 377.5 489.164 377.523 489.087 377.566C489.009 377.608 488.944 377.67 488.896 377.744C488.848 377.819 488.82 377.904 488.813 377.993C488.807 378.081 488.823 378.169 488.86 378.25C490.44 381.71 492.147 385.213 493.98 388.76C540.767 479.213 587.66 569.79 634.66 660.49C634.738 660.643 634.857 660.772 635.006 660.862C635.154 660.952 635.325 661 635.5 661H694.44C694.526 660.999 694.609 660.977 694.684 660.934C694.758 660.892 694.82 660.831 694.864 660.758C694.908 660.685 694.933 660.602 694.936 660.516C694.939 660.431 694.919 660.346 694.88 660.27L549.35 379.05C549.136 378.637 548.816 378.291 548.424 378.049C548.033 377.808 547.585 377.68 547.13 377.68Z" fill="#000072"/>
<path d="M332.9 377.56L430.71 377.69C431.096 377.693 431.474 377.801 431.804 378.004C432.133 378.207 432.402 378.496 432.58 378.84L578.34 660.22C578.381 660.302 578.4 660.393 578.396 660.485C578.392 660.576 578.364 660.665 578.316 660.743C578.268 660.821 578.201 660.886 578.121 660.931C578.042 660.975 577.952 660.999 577.86 661L478.94 660.81C478.789 660.81 478.64 660.768 478.51 660.689C478.38 660.61 478.272 660.496 478.2 660.36L332.34 378.5C332.288 378.403 332.263 378.294 332.266 378.184C332.268 378.074 332.299 377.967 332.356 377.872C332.412 377.778 332.491 377.7 332.587 377.645C332.682 377.59 332.79 377.561 332.9 377.56Z" fill="#262688"/>
<path d="M489.34 377.5L547.13 377.68C547.585 377.68 548.033 377.808 548.424 378.049C548.816 378.291 549.136 378.637 549.35 379.05L694.88 660.27C694.919 660.346 694.939 660.431 694.936 660.516C694.933 660.602 694.908 660.685 694.864 660.758C694.82 660.831 694.758 660.892 694.684 660.934C694.609 660.977 694.525 660.999 694.44 661H635.5C635.325 661 635.154 660.952 635.006 660.862C634.857 660.772 634.738 660.643 634.66 660.49C587.66 569.79 540.767 479.213 493.98 388.76C492.147 385.213 490.44 381.71 488.86 378.25C488.823 378.169 488.807 378.081 488.813 377.993C488.82 377.904 488.848 377.819 488.896 377.744C488.943 377.67 489.009 377.608 489.087 377.566C489.164 377.523 489.251 377.5 489.34 377.5Z" fill="#262688"/>
<path d="M898.5 420.02C918.333 420.173 938.167 420.25 958 420.25C959.273 420.123 960.523 420.22 961.75 420.54L962.75 423.21C927.85 423.303 909.85 423.317 908.75 423.25C895.65 422.457 887.913 428.373 885.54 441C883.187 437.387 882.61 433.74 883.81 430.06C886.023 423.307 890.92 419.96 898.5 420.02Z" fill="#D7B5FF"/>
<path d="M979.05 437.51C977.823 442.15 974.453 445.293 968.94 446.94C967.393 447.4 962.913 447.49 955.5 447.21C955.9 447.03 956.317 446.943 956.75 446.95C956.906 446.953 957.057 446.919 957.188 446.852C957.32 446.786 957.427 446.688 957.5 446.57C958.273 445.283 959.253 444.157 960.44 443.19C965.133 437.063 965.903 430.403 962.75 423.21L961.75 420.54C968.55 419.48 973.56 421.167 976.78 425.6C979.433 429.253 980.19 433.223 979.05 437.51Z" fill="#6F32D5"/>
<path d="M908.75 423.25C909.85 423.317 927.85 423.303 962.75 423.21C965.903 430.403 965.133 437.063 960.44 443.19C959.253 444.157 958.273 445.283 957.5 446.57C957.427 446.688 957.32 446.786 957.188 446.852C957.057 446.919 956.906 446.953 956.75 446.95C956.317 446.943 955.9 447.03 955.5 447.21C936.087 447.257 916.67 447.25 897.25 447.19C892.197 447.177 888.293 445.113 885.54 441C887.913 428.373 895.65 422.457 908.75 423.25Z" fill="#9E49FF"/>
<path d="M957.85 458.26C957.971 458.258 958.091 458.282 958.203 458.33C958.315 458.377 958.416 458.448 958.5 458.537C958.585 458.626 958.65 458.731 958.693 458.847C958.736 458.963 958.755 459.086 958.75 459.21C957.783 481.323 957.8 503.42 958.8 525.5C959.22 534.693 959.923 543.863 960.91 553.01C963.097 573.29 967.397 592.517 973.81 610.69C978.223 623.19 984.237 635.583 991.85 647.87C1004.78 668.743 1011.41 691.537 1011.72 716.25C1011.85 726.55 1010.56 736.657 1007.85 746.57C1005.7 754.45 1002.34 761.777 997.79 768.55C992.83 775.91 986.067 780.81 977.5 783.25C976.3 783.59 969.55 783.64 957.25 783.4C943.083 783.113 928.827 783.15 914.48 783.51C912.493 783.557 912.283 782.97 913.85 781.75C918.91 777.83 923.447 772.83 927.46 766.75C927.573 767.07 927.733 767.217 927.94 767.19C938.06 765.897 946.143 761.897 952.19 755.19C961.237 745.143 967.457 733.267 970.85 719.56C972.263 713.86 973.34 707.287 974.08 699.84C976.253 678.14 973.393 657.167 965.5 636.92C965.493 636.9 963 631.387 958.02 620.38C948.22 598.72 942.353 575.93 940.42 552.01C939.1 535.69 938.897 519.353 939.81 503C940.643 488.073 941.79 473.17 943.25 458.29L957.85 458.26Z" fill="#6F32D5"/>
<path d="M902.81 458.3L910.25 458.29C910.497 478.103 910.58 495.007 910.5 509C910.393 527.947 908.86 547.14 905.9 566.58C902.393 589.58 895.397 611.467 884.91 632.24C884.797 632.464 884.755 632.718 884.789 632.968C884.823 633.217 884.931 633.452 885.1 633.64C888.427 637.313 890.407 641.193 891.04 645.28C892.247 653.027 890.51 659.97 885.83 666.11C880.357 673.29 873.077 676.68 863.99 676.28C863.849 676.271 863.71 676.31 863.594 676.39C863.478 676.469 863.392 676.586 863.35 676.72C859.303 689.387 857.27 702.383 857.25 715.71L850.06 715.51C849.995 715.509 849.93 715.493 849.871 715.464C849.811 715.434 849.757 715.39 849.712 715.336C849.668 715.282 849.633 715.219 849.61 715.149C849.587 715.079 849.577 715.005 849.58 714.93C849.667 712.723 849.773 710.52 849.9 708.32C849.993 706.767 850.417 705.177 851.17 703.55C854.677 695.977 856.333 687.997 856.14 679.61C856.087 677.49 856.323 675.63 856.85 674.03C859.65 665.457 863.68 656.927 868.94 648.44C880.433 629.88 888.683 610.38 893.69 589.94C896.283 579.347 898.343 568.093 899.87 556.18C900.623 550.26 901.237 543.623 901.71 536.27C903.35 510.47 903.56 484.65 902.34 458.81C902.336 458.744 902.345 458.679 902.367 458.617C902.389 458.555 902.422 458.499 902.467 458.451C902.511 458.403 902.564 458.365 902.623 458.339C902.682 458.313 902.746 458.3 902.81 458.3Z" fill="#D7B5FF"/>
<path d="M910.25 458.29H943.25C941.79 473.17 940.643 488.073 939.81 503C938.897 519.353 939.1 535.69 940.42 552.01C942.353 575.93 948.22 598.72 958.02 620.38C963 631.387 965.493 636.9 965.5 636.92C973.393 657.167 976.253 678.14 974.08 699.84C973.34 707.287 972.263 713.86 970.85 719.56C967.457 733.267 961.237 745.143 952.19 755.19C946.143 761.897 938.06 765.897 927.94 767.19C927.733 767.217 927.573 767.07 927.46 766.75C930.813 761.137 933.597 754.157 935.81 745.81C936.69 742.503 937.1 739.427 937.04 736.58C936.98 733.62 936.197 730.683 934.69 727.77C930.103 718.903 922.207 714.897 911 715.75C910.12 715.817 892.203 715.803 857.25 715.71C857.27 702.383 859.303 689.387 863.35 676.72C863.392 676.586 863.478 676.469 863.594 676.39C863.71 676.31 863.849 676.271 863.99 676.28C873.077 676.68 880.357 673.29 885.83 666.11C890.51 659.97 892.247 653.027 891.04 645.28C890.407 641.193 888.427 637.313 885.1 633.64C884.931 633.452 884.823 633.217 884.789 632.968C884.755 632.718 884.797 632.464 884.91 632.24C895.397 611.467 902.393 589.58 905.9 566.58C908.86 547.14 910.393 527.947 910.5 509C910.58 495.007 910.497 478.103 910.25 458.29Z" fill="#9E49FF"/>
<path d="M107.75 600.29C107.477 602.103 107.31 603.923 107.25 605.75C107.25 605.75 107.25 642.333 107.25 715.5C107.25 724.707 107.607 731.35 108.32 735.43C111.373 753.003 120.517 767.123 135.75 777.79C136.823 778.33 137.74 779.053 138.5 779.96C117.933 772.84 104.85 758.937 99.25 738.25C98.1233 734.09 97.6 729.387 97.68 724.14C97.7267 721.347 97.75 719.917 97.75 719.85C97.75 654.117 97.75 621.25 97.75 621.25C97.4033 615.25 97.4 609.313 97.74 603.44C97.8533 601.533 98.77 600.553 100.49 600.5L107.75 600.29Z" fill="#90D5FF"/>
<path d="M107.75 600.29H214.25V715.46C192.597 715.967 178.263 716.063 171.25 715.75C165.957 715.517 161.337 716.537 157.39 718.81C153.377 721.123 150.373 724.457 148.38 728.81C146.707 732.463 146.133 736.34 146.66 740.44C146.96 742.807 147.897 746.507 149.47 751.54C152.337 760.713 157.11 768.867 163.79 776C163.81 776.3 163.713 776.467 163.5 776.5C154.3 777.913 145.05 778.343 135.75 777.79C120.517 767.123 111.373 753.003 108.32 735.43C107.607 731.35 107.25 724.707 107.25 715.5C107.25 642.333 107.25 605.75 107.25 605.75C107.31 603.923 107.477 602.103 107.75 600.29Z" fill="#069FFF"/>
<path d="M214.25 600.29L226.73 600.26C226.831 600.259 226.931 600.278 227.024 600.316C227.117 600.354 227.202 600.41 227.274 600.482C227.345 600.554 227.402 600.639 227.441 600.733C227.48 600.827 227.5 600.928 227.5 601.03C227.5 628.097 227.507 654.753 227.52 681C227.527 691.693 230.51 701.377 236.47 710.05C237.377 711.37 237.91 712.417 238.07 713.19C238.53 715.397 237.257 716.25 234.25 715.75C227.577 715.897 220.91 715.8 214.25 715.46V600.29Z" fill="#0470D3"/>
<path d="M84.66 636.43L84.71 639.25C66.0767 638.097 50.6933 644.283 38.56 657.81C32.8133 664.223 28.8633 671.787 26.71 680.5C25.91 680.153 25.66 679.487 25.96 678.5C26.7 669.567 29.7633 661.537 35.15 654.41C43.6767 643.13 54.96 636.66 69 635C73.9267 634.42 78.95 634.697 84.07 635.83C84.2341 635.864 84.3819 635.942 84.4891 636.051C84.5963 636.16 84.6566 636.293 84.66 636.43Z" fill="#90D5FF"/>
<path d="M84.71 639.25L84.75 652.18C84.7497 652.281 84.7257 652.382 84.6799 652.472C84.6341 652.563 84.5677 652.641 84.486 652.701C84.4044 652.762 84.3097 652.802 84.2097 652.819C84.1097 652.836 84.0071 652.83 83.91 652.8C79.1367 651.353 74.4167 650.95 69.75 651.59C65.2367 652.21 60.93 653.83 56.83 656.45C50.9433 660.223 46.8 665.327 44.4 671.76C42.1533 677.793 41.7667 684.023 43.24 690.45C45.54 700.497 51.8767 707.917 62.25 712.71C61.29 712.683 61.0167 712.89 61.43 713.33C61.5633 713.47 61.76 713.58 62.02 713.66C63.2533 714.04 64.4233 714.567 65.53 715.24C71.41 718.807 77.8033 720.06 84.71 719L84.74 729.29C84.7408 729.613 84.6242 729.925 84.4114 730.171C84.1986 730.417 83.9036 730.58 83.58 730.63C66.16 733.317 51.37 728.69 39.21 716.75C38.7767 714.617 37.7267 712.597 36.06 710.69C31.06 704.957 28.0833 698.203 27.13 690.43C27.07 689.97 27.1133 689.193 27.26 688.1C27.3733 687.273 27.3033 686.477 27.05 685.71C26.6567 684.477 26.4633 683.627 26.47 683.16C26.4767 682.267 26.5567 681.38 26.71 680.5C28.8633 671.787 32.8133 664.223 38.56 657.81C50.6933 644.283 66.0767 638.097 84.71 639.25Z" fill="#069FFF"/>
<path d="M267 672.04H816.25C815.497 675.3 813.493 677.357 810.24 678.21C808.36 678.703 806.447 678.947 804.5 678.94C461.5 678.813 290 678.75 290 678.75C282.28 678.963 276.78 678.713 273.5 678C270.573 677.367 268.407 675.38 267 672.04Z" fill="#EEEEF1"/>
<path d="M25.96 678.5C25.66 679.487 25.91 680.153 26.71 680.5C26.5567 681.38 26.4767 682.267 26.47 683.16C26.4633 683.627 26.6567 684.477 27.05 685.71C27.3033 686.477 27.3733 687.273 27.26 688.1C27.1133 689.193 27.07 689.97 27.13 690.43C28.0833 698.203 31.06 704.957 36.06 710.69C37.7267 712.597 38.7767 714.617 39.21 716.75C29.03 706.11 24.6133 693.36 25.96 678.5Z" fill="#069FFF"/>
<path d="M62.25 712.71C69.3833 715.463 76.7167 715.673 84.25 713.34C84.3081 713.323 84.3693 713.319 84.4289 713.329C84.4884 713.339 84.5447 713.362 84.5932 713.397C84.6417 713.432 84.6812 713.478 84.7084 713.53C84.7356 713.583 84.7498 713.641 84.75 713.7L84.71 719C77.8033 720.06 71.41 718.807 65.53 715.24C64.4233 714.567 63.2533 714.04 62.02 713.66C61.76 713.58 61.5633 713.47 61.43 713.33C61.0167 712.89 61.29 712.683 62.25 712.71Z" fill="#90D5FF"/>
<path d="M168.5 728.48C246.667 728.493 324.907 728.5 403.22 728.5C403.371 728.5 403.517 728.549 403.635 728.64C403.753 728.73 403.836 728.857 403.87 729L405.46 736C404.953 736.013 404.493 735.887 404.08 735.62C403.769 735.419 403.456 735.31 403.19 735.31C280.003 735.197 201.94 735.177 169 735.25C167.627 735.25 165.807 735.583 163.54 736.25L160.96 732.5C162.72 729.82 165.233 728.48 168.5 728.48Z" fill="#EEEDEF"/>
<path d="M415.8 728.56L667.97 728.5C668.049 728.5 668.127 728.518 668.197 728.553C668.267 728.588 668.328 728.64 668.375 728.703C668.422 728.766 668.453 728.84 668.466 728.917C668.479 728.995 668.474 729.075 668.45 729.15C667.903 730.897 667.44 732.65 667.06 734.41C665.427 742.023 661.527 746.85 655.36 748.89C653.127 749.63 647.517 750 638.53 750C508.343 750 443.25 750 443.25 750C438.21 750.12 434.293 750.037 431.5 749.75C428.513 749.443 425.713 748.25 423.1 746.17C420.407 744.023 418.533 741.303 417.48 738.01C416.54 735.077 415.84 732.09 415.38 729.05C415.371 728.989 415.376 728.926 415.393 728.867C415.41 728.807 415.44 728.752 415.48 728.706C415.519 728.659 415.569 728.622 415.624 728.597C415.679 728.572 415.739 728.559 415.8 728.56Z" fill="#8E8EB0"/>
<path d="M680.25 728.5C758.583 728.5 836.75 728.5 914.75 728.5C918.257 728.5 920.937 729.833 922.79 732.5C922.21 733.96 921.28 735.14 920 736.04C915.78 735.327 911.53 735.063 907.25 735.25C831.83 735.25 756.413 735.25 681 735.25C679.707 735.25 678.86 735.083 678.46 734.75L679.63 729C679.658 728.859 679.735 728.731 679.848 728.64C679.961 728.549 680.103 728.499 680.25 728.5Z" fill="#EEEDEF"/>
<path d="M160.96 732.5L163.54 736.25C174.747 751.55 189.65 759.3 208.25 759.5C256.523 760.02 322.883 760.027 407.33 759.52C409.237 759.513 411.85 759.56 415.17 759.66C417.783 759.747 420.393 759.777 423 759.75C423.633 759.89 423.883 759.653 423.75 759.04C426.55 760.04 429.05 760.61 431.25 760.75C435.403 761.017 440.903 761.15 447.75 761.15C577.417 761.05 642.25 761 642.25 761C648.297 761.407 654.213 760.753 660 759.04C660.133 759.647 660.42 759.89 660.86 759.77C661.38 759.637 661.7 759.57 661.82 759.57C730.82 759.877 799.82 759.87 868.82 759.55C877.48 759.51 883.893 758.997 888.06 758.01C900.713 755.017 911.197 748.153 919.51 737.42C919.543 737.38 919.68 737.247 919.92 737.02C920.193 736.76 920.22 736.433 920 736.04C921.28 735.14 922.21 733.96 922.79 732.5C924.27 734.7 924.757 737.033 924.25 739.5C923.723 742.073 922.997 744.8 922.07 747.68C921.143 750.547 920.067 753.153 918.84 755.5C909.387 773.5 893.773 782.5 872 782.5C650.08 782.5 428.163 782.5 206.25 782.5C187.177 780.707 173.4 771.703 164.92 755.49C163.74 753.237 162.63 750.51 161.59 747.31C160.363 743.523 159.583 740.67 159.25 738.75C158.87 736.577 159.44 734.493 160.96 732.5Z" fill="#8E8EB0"/>
<path d="M678.46 734.75C678.86 735.083 679.707 735.25 681 735.25C756.413 735.25 831.83 735.25 907.25 735.25C911.53 735.063 915.78 735.327 920 736.04C920.22 736.433 920.193 736.76 919.92 737.02C919.68 737.247 919.543 737.38 919.51 737.42C911.197 748.153 900.713 755.017 888.06 758.01C883.893 758.997 877.48 759.51 868.82 759.55C799.82 759.87 730.82 759.877 661.82 759.57C661.7 759.57 661.38 759.637 660.86 759.77C660.42 759.89 660.133 759.647 660 759.04C670.5 754.353 676.653 746.257 678.46 734.75Z" fill="#CCCCCC"/>
<path d="M169 735.25C201.94 735.177 280.003 735.197 403.19 735.31C403.456 735.31 403.769 735.419 404.08 735.62C404.493 735.887 404.953 736.013 405.46 736C407.507 746.96 413.603 754.64 423.75 759.04C423.883 759.653 423.633 759.89 423 759.75C420.393 759.777 417.783 759.747 415.17 759.66C411.85 759.56 409.237 759.513 407.33 759.52C322.883 760.027 256.523 760.02 208.25 759.5C189.65 759.3 174.747 751.55 163.54 736.25C165.807 735.583 167.627 735.25 169 735.25Z" fill="#CCCCCC"/>
<path d="M163.79 776L170.22 781.89C170.66 782.297 170.59 782.5 170.01 782.5C165.337 782.5 160.667 782.497 156 782.49C150.04 782.483 144.207 781.64 138.5 779.96C137.74 779.053 136.823 778.33 135.75 777.79C145.05 778.343 154.3 777.913 163.5 776.5C163.713 776.467 163.81 776.3 163.79 776Z" fill="#0470D3"/>
</svg>
